<svg width="1260" height="413" viewBox="0 0 1260 413" fill="none" xmlns="http://www.w3.org/2000/svg">
<path d="M156.095 16.035L154.59 17.352L154.633 17.4021L154.681 17.4492L156.095 16.035ZM151.44 80.715L152.926 82.0529L152.937 82.0408L152.948 82.0286L151.44 80.715ZM94.3547 86.105L95.7689 84.6908L95.7689 84.6908L94.3547 86.105ZM83.8197 27.795L82.2197 26.595L81.8197 27.1283V27.795H83.8197ZM83.8197 95.415H81.8197V97.415H83.8197V95.415ZM83.8197 106.93V104.93H81.8197V106.93H83.8197ZM81.8597 175.04L80.4455 173.626L80.3984 173.673L80.3546 173.723L81.8597 175.04ZM19.8747 175.04L18.3696 176.357L18.4134 176.407L18.4605 176.454L19.8747 175.04ZM17.1797 33.185L15.2824 33.8175L15.2909 33.8431L15.3001 33.8685L17.1797 33.185ZM13.7497 28.04L12.3355 29.4542L12.3727 29.4914L12.4118 29.5266L13.7497 28.04ZM5.41973 21.67L6.52913 20.0059L6.48953 19.9795L6.44872 19.955L5.41973 21.67ZM149.97 16.075C152.716 16.075 154.021 16.7023 154.59 17.352L157.6 14.718C155.882 12.7544 153.103 12.075 149.97 12.075V16.075ZM154.681 17.4492C155.426 18.1946 156.055 19.7375 156.055 22.65H160.055C160.055 19.3558 159.377 16.4887 157.509 14.6208L154.681 17.4492ZM156.055 22.65V57.685H160.055V22.65H156.055ZM156.055 57.685C156.055 67.7391 153.893 74.8531 149.932 79.4014L152.948 82.0286C157.806 76.4503 160.055 68.2109 160.055 57.685H156.055ZM149.953 79.3771C146.052 83.7119 139.912 86.065 131.105 86.065V90.065C140.591 90.065 148.008 87.5181 152.926 82.0529L149.953 79.3771ZM131.105 86.065H100.97V90.065H131.105V86.065ZM100.97 86.065C98.0572 86.065 96.5143 85.4361 95.7689 84.6908L92.9405 87.5192C94.8085 89.3872 97.6756 90.065 100.97 90.065V86.065ZM95.7689 84.6908C95.0236 83.9454 94.3947 82.4025 94.3947 79.49H90.3947C90.3947 82.7842 91.0725 85.6512 92.9405 87.5192L95.7689 84.6908ZM94.3947 79.49V31.225H90.3947V79.49H94.3947ZM94.3947 31.225C94.3947 29.2264 94.0182 27.36 92.9361 25.9596C91.7783 24.4613 90.084 23.835 88.2297 23.835V27.835C89.1521 27.835 89.5403 28.107 89.7709 28.4054C90.0771 28.8016 90.3947 29.6302 90.3947 31.225H94.3947ZM88.2297 23.835C85.7817 23.835 83.655 24.6813 82.2197 26.595L85.4197 28.995C85.9445 28.2953 86.7577 27.835 88.2297 27.835V23.835ZM81.8197 27.795V95.415H85.8197V27.795H81.8197ZM83.8197 97.415H130.37V93.415H83.8197V97.415ZM130.37 97.415C130.713 97.415 130.937 97.4551 131.072 97.4961C131.137 97.516 131.176 97.5347 131.197 97.5464C131.208 97.5523 131.215 97.5567 131.218 97.5593C131.22 97.5606 131.222 97.5616 131.222 97.5622C131.223 97.5628 131.223 97.5631 131.223 97.5631C131.223 97.5631 131.223 97.5629 131.223 97.5626C131.223 97.5623 131.222 97.562 131.222 97.5617C131.221 97.561 131.222 97.5612 131.223 97.563C131.225 97.5661 131.234 97.5809 131.246 97.6144C131.272 97.6847 131.31 97.8374 131.31 98.11H135.31C135.31 96.8564 134.96 95.5619 133.926 94.6144C132.925 93.6971 131.617 93.415 130.37 93.415V97.415ZM131.31 98.11V104.48H135.31V98.11H131.31ZM131.31 104.48C131.31 104.692 131.277 104.788 131.269 104.809C131.265 104.818 131.275 104.797 131.294 104.781C131.313 104.766 131.121 104.93 130.37 104.93V108.93C131.578 108.93 132.857 108.686 133.855 107.854C134.923 106.964 135.31 105.711 135.31 104.48H131.31ZM130.37 104.93H83.8197V108.93H130.37V104.93ZM81.8197 106.93V168.425H85.8197V106.93H81.8197ZM81.8197 168.425C81.8197 171.338 81.1909 172.88 80.4455 173.626L83.2739 176.454C85.1419 174.586 85.8197 171.719 85.8197 168.425H81.8197ZM80.3546 173.723C79.786 174.373 78.4813 175 75.7347 175V179C78.8681 179 81.6468 178.321 83.3649 176.357L80.3546 173.723ZM75.7347 175H26.2447V179H75.7347V175ZM26.2447 175C23.5328 175 22.0504 174.387 21.2889 173.626L18.4605 176.454C20.3124 178.306 23.0767 179 26.2447 179V175ZM21.3799 173.723C20.7257 172.975 20.1597 171.387 20.1597 168.425H16.1597C16.1597 171.67 16.7371 174.491 18.3696 176.357L21.3799 173.723ZM20.1597 168.425V42.005H16.1597V168.425H20.1597ZM20.1597 42.005C20.1597 37.8922 19.8406 34.65 19.0593 32.5015L15.3001 33.8685C15.8255 35.3133 16.1597 37.9511 16.1597 42.005H20.1597ZM19.0771 32.5525C18.3073 30.2433 16.9613 28.2397 15.0877 26.5534L12.4118 29.5266C13.8048 30.7803 14.7455 32.2067 15.2824 33.8175L19.0771 32.5525ZM15.1639 26.6258C13.3843 24.8461 10.4703 22.6334 6.52913 20.0059L4.31033 23.3341C8.20911 25.9333 10.8485 27.9672 12.3355 29.4542L15.1639 26.6258ZM6.44872 19.955C6.30058 19.8661 6.26143 19.8018 6.24929 19.78C6.23567 19.7554 6.19473 19.6717 6.19473 19.465H2.19473C2.19473 21.1226 2.95055 22.5209 4.39073 23.385L6.44872 19.955ZM6.19473 19.465V16.525H2.19473V19.465H6.19473ZM6.19473 16.525C6.19473 16.3125 6.22698 16.217 6.23543 16.1959C6.23899 16.187 6.22912 16.2081 6.21009 16.2239C6.19189 16.2391 6.38321 16.075 7.13473 16.075V12.075C5.92625 12.075 4.64757 12.3192 3.64936 13.1511C2.58131 14.0411 2.19473 15.2945 2.19473 16.525H6.19473ZM7.13473 16.075H149.97V12.075H7.13473V16.075ZM213.367 65.035L211.658 66.0738L213.05 68.3635L214.849 66.378L213.367 65.035ZM229.292 53.52L230.061 55.3662L230.083 55.3571L230.104 55.3476L229.292 53.52ZM279.027 59.4L277.731 60.9231L277.731 60.9231L279.027 59.4ZM281.232 105.215L282.52 106.745L282.532 106.735L282.543 106.725L281.232 105.215ZM233.457 105.705L232.197 107.259L232.207 107.267L232.218 107.275L233.457 105.705ZM247.912 65.28V67.28H249.044L249.627 66.309L247.912 65.28ZM224.882 67.73L226.318 69.1223L226.328 69.1116L226.338 69.1007L224.882 67.73ZM222.432 104.725L220.801 105.882L220.822 105.913L220.845 105.942L222.432 104.725ZM238.357 116.485L237.569 118.323L237.569 118.323L238.357 116.485ZM242.767 119.915L240.978 120.809L241.048 120.95L241.139 121.077L242.767 119.915ZM175.882 69.69L174.112 70.6215L174.123 70.6415L174.134 70.6613L175.882 69.69ZM166.817 61.115L167.836 59.3944L167.823 59.3864L167.809 59.3785L166.817 61.115ZM164.857 59.645L166.646 58.7506L166.59 58.6392L166.521 58.5356L164.857 59.645ZM184.702 54.54C198.387 54.54 207.103 58.5811 211.658 66.0738L215.076 63.9962C209.504 54.8289 199.11 50.54 184.702 50.54V54.54ZM214.849 66.378C219.409 61.3458 224.481 57.6913 230.061 55.3662L228.523 51.6738C222.343 54.2487 216.798 58.2708 211.885 63.692L214.849 66.378ZM230.104 55.3476C235.684 52.8677 242.177 51.6 249.627 51.6V47.6C241.724 47.6 234.66 48.9456 228.48 51.6924L230.104 55.3476ZM249.627 51.6C261.166 51.6 270.48 54.7519 277.731 60.9231L280.323 57.8769C272.221 50.9814 261.934 47.6 249.627 47.6V51.6ZM277.731 60.9231C284.958 67.0744 288.542 74.8465 288.542 84.39H292.542C292.542 73.6801 288.449 64.7923 280.323 57.8769L277.731 60.9231ZM288.542 84.39C288.542 92.326 285.673 98.709 279.921 103.705L282.543 106.725C289.204 100.941 292.542 93.4407 292.542 84.39H288.542ZM279.944 103.685C274.169 108.548 266.652 111.055 257.222 111.055V115.055C267.391 115.055 275.882 112.335 282.52 106.745L279.944 103.685ZM257.222 111.055C247.934 111.055 240.478 108.7 234.696 104.135L232.218 107.275C238.849 112.51 247.237 115.055 257.222 115.055V111.055ZM234.716 104.151C229.122 99.6156 226.392 93.971 226.392 87.085H222.392C222.392 95.2257 225.705 101.994 232.197 107.259L234.716 104.151ZM226.392 87.085C226.392 81.2346 228.391 76.5526 232.366 72.8725L229.648 69.9375C224.803 74.4241 222.392 80.1954 222.392 87.085H226.392ZM232.366 72.8725C236.353 69.1802 241.479 67.28 247.912 67.28V63.28C240.625 63.28 234.48 65.4632 229.648 69.9375L232.366 72.8725ZM249.627 66.309C250.272 65.2338 250.647 64.0657 250.647 62.83H246.647C246.647 63.2276 246.532 63.6928 246.197 64.251L249.627 66.309ZM250.647 62.83C250.647 61.104 249.952 59.5813 248.47 58.5934C247.131 57.7009 245.376 57.4 243.502 57.4V61.4C245.058 61.4 245.875 61.6708 246.251 61.9216C246.484 62.077 246.647 62.2693 246.647 62.83H250.647ZM243.502 57.4C235.727 57.4 229.004 60.4319 223.425 66.3593L226.338 69.1007C231.213 63.9215 236.903 61.4 243.502 61.4V57.4ZM223.446 66.3377C217.849 72.1101 215.042 79.1466 215.042 87.33H219.042C219.042 80.1601 221.462 74.1299 226.318 69.1223L223.446 66.3377ZM215.042 87.33C215.042 94.2551 216.955 100.463 220.801 105.882L224.063 103.568C220.723 98.8607 219.042 93.4716 219.042 87.33H215.042ZM220.845 105.942C224.85 111.166 230.459 115.276 237.569 118.323L239.145 114.647C232.534 111.814 227.528 108.084 224.019 103.508L220.845 105.942ZM237.569 118.323C239.701 119.237 240.641 120.135 240.978 120.809L244.556 119.021C243.586 117.081 241.587 115.693 239.145 114.647L237.569 118.323ZM241.139 121.077C241.563 121.67 241.992 123.146 241.992 126.04H245.992C245.992 123.054 245.604 120.446 244.394 118.753L241.139 121.077ZM241.992 126.04V169.16H245.992V126.04H241.992ZM241.992 169.16C241.992 171.433 241.394 172.779 240.539 173.584C239.661 174.41 238.159 175 235.662 175V179C238.718 179 241.382 178.283 243.28 176.496C245.201 174.688 245.992 172.114 245.992 169.16H241.992ZM235.662 175H185.927V179H235.662V175ZM185.927 175C183.72 175 182.428 174.434 181.667 173.648C180.895 172.851 180.332 171.481 180.332 169.16H176.332C176.332 172.066 177.035 174.616 178.794 176.432C180.565 178.259 183.071 179 185.927 179V175ZM180.332 169.16V82.675H176.332V169.16H180.332ZM180.332 82.675C180.332 76.8269 179.507 72.0963 177.63 68.7187L174.134 70.6613C175.524 73.1637 176.332 77.0897 176.332 82.675H180.332ZM177.652 68.7585C175.784 65.2101 172.427 62.1145 167.836 59.3944L165.797 62.8356C170.027 65.3422 172.713 67.9633 174.112 70.6215L177.652 68.7585ZM167.809 59.3785C167.272 59.0714 166.902 58.8321 166.669 58.6575C166.553 58.5705 166.5 58.5205 166.485 58.5064C166.458 58.4787 166.551 58.5617 166.646 58.7506L163.068 60.5394C163.378 61.1586 163.929 61.602 164.269 61.8575C164.69 62.1729 165.219 62.5053 165.825 62.8515L167.809 59.3785ZM166.521 58.5356C166.437 58.4096 166.367 58.2334 166.367 57.93H162.367C162.367 58.9333 162.623 59.9004 163.193 60.7544L166.521 58.5356ZM166.367 57.93V54.99H162.367V57.93H166.367ZM166.367 54.99C166.367 54.7775 166.399 54.682 166.408 54.6609C166.411 54.652 166.401 54.6731 166.382 54.6889C166.364 54.7041 166.555 54.54 167.307 54.54V50.54C166.098 50.54 164.82 50.7842 163.822 51.6161C162.753 52.5061 162.367 53.7595 162.367 54.99H166.367ZM167.307 54.54H184.702V50.54H167.307V54.54ZM312.576 163.28L311.213 164.743L311.223 164.753L312.576 163.28ZM312.576 66.26L311.223 64.7873L311.213 64.7966L312.576 66.26ZM417.681 66.26L416.318 67.7235L416.328 67.7326L417.681 66.26ZM417.681 163.28L416.328 161.807L416.318 161.817L417.681 163.28ZM365.251 170.67C367.304 170.67 369.071 169.853 370.223 168.126C371.279 166.542 371.661 164.419 371.661 162.055H367.661C367.661 164.101 367.309 165.286 366.895 165.907C366.576 166.385 366.139 166.67 365.251 166.67V170.67ZM371.661 162.055V67.485H367.661V162.055H371.661ZM371.661 67.485C371.661 65.1209 371.279 62.9981 370.223 61.4143C369.071 59.6874 367.304 58.87 365.251 58.87V62.87C366.139 62.87 366.576 63.1551 366.895 63.6331C367.309 64.2543 367.661 65.439 367.661 67.485H371.661ZM365.251 58.87C363.199 58.87 361.431 59.6874 360.28 61.4143C359.224 62.9981 358.841 65.1209 358.841 67.485H362.841C362.841 65.439 363.194 64.2543 363.608 63.6331C363.926 63.1551 364.364 62.87 365.251 62.87V58.87ZM358.841 67.485V162.055H362.841V67.485H358.841ZM358.841 162.055C358.841 164.419 359.224 166.542 360.28 168.126C361.431 169.853 363.199 170.67 365.251 170.67V166.67C364.364 166.67 363.926 166.385 363.608 165.907C363.194 165.286 362.841 164.101 362.841 162.055H358.841ZM365.251 177.94C342.52 177.94 325.521 172.459 313.929 161.807L311.223 164.753C323.805 176.314 341.922 181.94 365.251 181.94V177.94ZM313.939 161.817C302.536 151.194 296.691 135.625 296.691 114.77H292.691C292.691 136.381 298.77 153.153 311.213 164.743L313.939 161.817ZM296.691 114.77C296.691 93.9145 302.536 78.3459 313.939 67.7234L311.213 64.7966C298.77 76.3874 292.691 93.1588 292.691 114.77H296.691ZM313.929 67.7326C325.521 57.0808 342.52 51.6 365.251 51.6V47.6C341.922 47.6 323.805 53.2258 311.223 64.7873L313.929 67.7326ZM365.251 51.6C387.984 51.6 404.894 57.0817 416.318 67.7234L419.044 64.7966C406.622 53.2249 388.578 47.6 365.251 47.6V51.6ZM416.328 67.7326C427.89 78.357 433.811 93.9225 433.811 114.77H437.811C437.811 93.1508 431.646 76.3763 419.034 64.7873L416.328 67.7326ZM433.811 114.77C433.811 135.617 427.89 151.183 416.328 161.807L419.034 164.753C431.646 153.164 437.811 136.389 437.811 114.77H433.811ZM416.318 161.817C404.894 172.458 387.984 177.94 365.251 177.94V181.94C388.578 181.94 406.622 176.315 419.044 164.743L416.318 161.817ZM497.359 56.95L496.305 58.6493L496.339 58.6703L496.373 58.69L497.359 56.95ZM507.404 70.18L505.487 70.7499L506.835 75.2829L509.149 71.1585L507.404 70.18ZM522.594 54.99L523.542 56.7509L523.55 56.7467L523.558 56.7424L522.594 54.99ZM571.594 60.135L570.096 61.4594L570.096 61.4594L571.594 60.135ZM578.944 175.285L580.359 176.699L580.359 176.699L578.944 175.285ZM521.859 175.285L520.354 176.602L520.442 176.702L520.542 176.79L521.859 175.285ZM518.919 80.47L520.547 79.3075L520.547 79.3075L518.919 80.47ZM511.324 80.715L509.628 79.655L509.324 80.1414V80.715H511.324ZM509.364 175.285L510.779 176.699L510.779 176.699L509.364 175.285ZM452.279 175.285L450.774 176.602L450.862 176.702L450.962 176.79L452.279 175.285ZM448.114 69.69L446.344 70.6215L446.355 70.6415L446.366 70.6613L448.114 69.69ZM439.049 61.115L440.069 59.3944L440.055 59.3864L440.042 59.3785L439.049 61.115ZM437.089 59.645L438.878 58.7506L438.822 58.6392L438.753 58.5356L437.089 59.645ZM478.249 54.54C486.034 54.54 491.994 55.9737 496.305 58.6493L498.414 55.2507C493.251 52.0463 486.472 50.54 478.249 50.54V54.54ZM496.373 58.69C500.768 61.1804 503.819 65.138 505.487 70.7499L509.321 69.6101C507.396 63.1353 503.75 58.2729 498.345 55.21L496.373 58.69ZM509.149 71.1585C512.731 64.7717 517.528 59.9897 523.542 56.7509L521.646 53.2291C514.921 56.8502 509.59 62.195 505.66 69.2015L509.149 71.1585ZM523.558 56.7424C529.769 53.3266 536.782 51.6 544.644 51.6V47.6C536.174 47.6 528.487 49.4667 521.63 53.2376L523.558 56.7424ZM544.644 51.6C555.988 51.6 564.362 54.9708 570.096 61.4594L573.093 58.8106C566.414 51.2525 556.82 47.6 544.644 47.6V51.6ZM570.096 61.4594C575.875 67.9994 578.904 77.4252 578.904 90.025H582.904C582.904 76.8181 579.727 66.3173 573.093 58.8106L570.096 61.4594ZM578.904 90.025V169.16H582.904V90.025H578.904ZM578.904 169.16C578.904 171.67 578.309 173.091 577.53 173.871L580.359 176.699C582.192 174.865 582.904 172.204 582.904 169.16H578.904ZM577.53 173.871C576.984 174.416 575.579 175 572.574 175V179C575.776 179 578.618 178.44 580.359 176.699L577.53 173.871ZM572.574 175H528.474V179H572.574V175ZM528.474 175C525.512 175 523.924 174.434 523.176 173.78L520.542 176.79C522.408 178.423 525.23 179 528.474 179V175ZM523.364 173.968C522.683 173.19 522.144 171.726 522.144 169.16H518.144C518.144 172.147 518.749 174.767 520.354 176.602L523.364 173.968ZM522.144 169.16V84.88H518.144V169.16H522.144ZM522.144 84.88C522.144 82.7829 521.666 80.8738 520.547 79.3075L517.292 81.6325C517.806 82.3528 518.144 83.3838 518.144 84.88H522.144ZM520.547 79.3075C519.335 77.6105 517.57 76.755 515.489 76.755V80.755C516.349 80.755 516.871 81.0428 517.292 81.6325L520.547 79.3075ZM515.489 76.755C513.054 76.755 510.911 77.6026 509.628 79.655L513.02 81.775C513.371 81.214 514.005 80.755 515.489 80.755V76.755ZM509.324 80.715V169.16H513.324V80.715H509.324ZM509.324 169.16C509.324 171.67 508.729 173.091 507.95 173.871L510.779 176.699C512.612 174.865 513.324 172.204 513.324 169.16H509.324ZM507.95 173.871C507.404 174.416 505.999 175 502.994 175V179C506.196 179 509.038 178.44 510.779 176.699L507.95 173.871ZM502.994 175H458.894V179H502.994V175ZM458.894 175C455.932 175 454.344 174.434 453.596 173.78L450.962 176.79C452.828 178.423 455.65 179 458.894 179V175ZM453.784 173.968C453.103 173.19 452.564 171.726 452.564 169.16H448.564C448.564 172.147 449.169 174.767 450.774 176.602L453.784 173.968ZM452.564 169.16V82.675H448.564V169.16H452.564ZM452.564 82.675C452.564 76.8269 451.739 72.0963 449.863 68.7187L446.366 70.6613C447.756 73.1637 448.564 77.0897 448.564 82.675H452.564ZM449.884 68.7585C448.017 65.2101 444.659 62.1145 440.069 59.3944L438.03 62.8356C442.26 65.3422 444.945 67.9633 446.344 70.6215L449.884 68.7585ZM440.042 59.3785C439.504 59.0714 439.135 58.8321 438.902 58.6575C438.786 58.5705 438.732 58.5205 438.718 58.5064C438.69 58.4787 438.784 58.5617 438.878 58.7506L435.3 60.5394C435.61 61.1586 436.161 61.602 436.502 61.8575C436.922 62.1729 437.451 62.5053 438.057 62.8515L440.042 59.3785ZM438.753 58.5356C438.669 58.4096 438.599 58.2334 438.599 57.93H434.599C434.599 58.9333 434.856 59.9004 435.425 60.7544L438.753 58.5356ZM438.599 57.93V54.99H434.599V57.93H438.599ZM438.599 54.99C438.599 54.7775 438.632 54.682 438.64 54.6609C438.644 54.652 438.634 54.6731 438.615 54.6889C438.596 54.7041 438.788 54.54 439.539 54.54V50.54C438.331 50.54 437.052 50.7842 436.054 51.6161C434.986 52.5061 434.599 53.7595 434.599 54.99H438.599ZM439.539 54.54H478.249V50.54H439.539V54.54ZM619.177 26.08L621.123 26.5451L621.129 26.5187L621.135 26.492L619.177 26.08ZM622.117 19.955L623.317 21.555L623.331 21.5445L623.345 21.5337L622.117 19.955ZM661.562 20.2L660.057 21.517L660.145 21.6173L660.245 21.7051L661.562 20.2ZM663.522 52.54H661.522V54.54H663.522V52.54ZM663.522 61.85V59.85H661.522V61.85H663.522ZM664.747 145.395L663.12 146.557L663.171 146.629L663.229 146.697L664.747 145.395ZM674.057 145.15L672.457 143.95L672.406 144.018L672.361 144.09L674.057 145.15ZM676.507 137.555L678.478 137.898L678.486 137.851L678.492 137.803L676.507 137.555ZM677.487 132.655L675.887 131.455L675.779 131.599L675.699 131.761L677.487 132.655ZM685.572 133.39L683.649 133.939L683.684 134.061L683.734 134.178L685.572 133.39ZM675.527 169.405L674.13 167.975L675.527 169.405ZM612.807 168.67L611.393 170.084L611.401 170.092L611.409 170.099L612.807 168.67ZM601.537 61.85H603.537V59.85H601.537V61.85ZM604.967 50.335L605.725 52.1861L605.725 52.1861L604.967 50.335ZM613.297 42.74L611.576 41.7225L611.558 41.7521L611.542 41.7823L613.297 42.74ZM621.135 26.492C621.769 23.4768 622.628 22.0721 623.317 21.555L620.917 18.355C618.994 19.7979 617.892 22.4765 617.22 25.668L621.135 26.492ZM623.345 21.5337C624.329 20.7687 625.947 20.24 628.487 20.24V16.24C625.475 16.24 622.846 16.8546 620.89 18.3763L623.345 21.5337ZM628.487 20.24H655.192V16.24H628.487V20.24ZM655.192 20.24C658.144 20.24 659.504 20.8851 660.057 21.517L663.068 18.883C661.334 16.9015 658.448 16.24 655.192 16.24V20.24ZM660.245 21.7051C660.915 22.2911 661.522 23.5403 661.522 26.08H665.522C665.522 23.0663 664.823 20.3955 662.879 18.6948L660.245 21.7051ZM661.522 26.08V52.54H665.522V26.08H661.522ZM663.522 54.54H687.777V50.54H663.522V54.54ZM687.777 54.54C688.529 54.54 688.72 54.7041 688.702 54.6889C688.683 54.6731 688.673 54.652 688.677 54.6609C688.685 54.682 688.717 54.7775 688.717 54.99H692.717C692.717 53.7595 692.331 52.5061 691.263 51.6161C690.265 50.7842 688.986 50.54 687.777 50.54V54.54ZM688.717 54.99V59.4H692.717V54.99H688.717ZM688.717 59.4C688.717 59.6124 688.685 59.708 688.677 59.7291C688.673 59.738 688.683 59.7169 688.702 59.7011C688.72 59.6859 688.529 59.85 687.777 59.85V63.85C688.986 63.85 690.265 63.6058 691.263 62.7739C692.331 61.8839 692.717 60.6305 692.717 59.4H688.717ZM687.777 59.85H663.522V63.85H687.777V59.85ZM661.522 61.85V138.78H665.522V61.85H661.522ZM661.522 138.78C661.522 140.486 661.628 141.985 661.862 143.248C662.091 144.486 662.47 145.647 663.12 146.557L666.375 144.233C666.208 143.999 665.974 143.487 665.795 142.52C665.621 141.578 665.522 140.341 665.522 138.78H661.522ZM663.229 146.697C664.773 148.497 667.217 149.11 669.892 149.11V145.11C667.668 145.11 666.682 144.579 666.266 144.093L663.229 146.697ZM669.892 149.11C672.328 149.11 674.471 148.262 675.753 146.21L672.361 144.09C672.011 144.651 671.377 145.11 669.892 145.11V149.11ZM675.657 146.35C676.953 144.623 677.824 141.655 678.478 137.898L674.537 137.212C673.884 140.968 673.122 143.064 672.457 143.95L675.657 146.35ZM678.492 137.803C678.652 136.52 678.809 135.512 678.959 134.762C679.034 134.388 679.103 134.096 679.166 133.878C679.196 133.77 679.223 133.688 679.245 133.629C679.267 133.569 679.278 133.545 679.276 133.549L675.699 131.761C675.405 132.347 675.202 133.151 675.036 133.978C674.86 134.861 674.689 135.976 674.523 137.307L678.492 137.803ZM679.087 133.855C679.122 133.809 679.2 133.675 679.692 133.675V129.675C678.224 129.675 676.833 130.195 675.887 131.455L679.087 133.855ZM679.692 133.675H683.612V129.675H679.692V133.675ZM683.612 133.675C683.662 133.675 683.66 133.682 683.626 133.67C683.588 133.657 683.549 133.634 683.52 133.609C683.469 133.564 683.554 133.606 683.649 133.939L687.496 132.841C687.264 132.031 686.86 131.216 686.154 130.599C685.416 129.952 684.52 129.675 683.612 129.675V133.675ZM683.734 134.178C684.05 134.914 684.307 136.511 684.307 139.27H688.307C688.307 136.475 688.075 134.152 687.411 132.602L683.734 134.178ZM684.307 139.27C684.307 151.967 680.825 161.431 674.13 167.975L676.925 170.835C684.603 163.332 688.307 152.706 688.307 139.27H684.307ZM674.13 167.975C667.423 174.529 657.781 177.94 644.902 177.94V181.94C658.484 181.94 669.258 178.328 676.925 170.835L674.13 167.975ZM644.902 177.94C631.554 177.94 621.413 174.294 614.206 167.241L611.409 170.099C619.555 178.072 630.811 181.94 644.902 181.94V177.94ZM614.222 167.256C607.18 160.214 603.537 150.245 603.537 137.065H599.537C599.537 150.999 603.409 162.1 611.393 170.084L614.222 167.256ZM603.537 137.065V61.85H599.537V137.065H603.537ZM601.537 59.85H587.082V63.85H601.537V59.85ZM587.082 59.85C586.331 59.85 586.14 59.6859 586.158 59.7011C586.177 59.7169 586.187 59.738 586.183 59.7291C586.175 59.708 586.142 59.6124 586.142 59.4H582.142C582.142 60.6305 582.529 61.8839 583.597 62.7739C584.595 63.6058 585.874 63.85 587.082 63.85V59.85ZM586.142 59.4V54.99H582.142V59.4H586.142ZM586.142 54.99C586.142 54.7775 586.175 54.682 586.183 54.6609C586.187 54.652 586.177 54.6731 586.158 54.6889C586.14 54.7041 586.331 54.54 587.082 54.54V50.54C585.874 50.54 584.595 50.7842 583.597 51.6161C582.529 52.5061 582.142 53.7595 582.142 54.99H586.142ZM587.082 54.54H588.062V50.54H587.082V54.54ZM588.062 54.54C595.795 54.54 601.756 53.8098 605.725 52.1861L604.21 48.4839C600.993 49.8002 595.683 50.54 588.062 50.54V54.54ZM605.725 52.1861C609.768 50.532 612.886 47.6711 615.053 43.6977L611.542 41.7823C609.789 44.9955 607.354 47.198 604.21 48.4839L605.725 52.1861ZM615.019 43.7574C617.297 39.9035 619.312 34.1173 621.123 26.5451L617.232 25.6148C615.45 33.0693 613.545 38.3898 611.576 41.7225L615.019 43.7574ZM771.716 93.25C772.468 93.25 772.659 93.4141 772.641 93.3989C772.622 93.3831 772.612 93.362 772.616 93.3709C772.624 93.392 772.656 93.4875 772.656 93.7H776.656C776.656 92.4695 776.27 91.2161 775.202 90.3261C774.203 89.4942 772.925 89.25 771.716 89.25V93.25ZM772.656 93.7V127.265H776.656V93.7H772.656ZM772.656 127.265C772.656 127.477 772.624 127.573 772.616 127.594C772.612 127.603 772.622 127.582 772.641 127.566C772.659 127.551 772.468 127.715 771.716 127.715V131.715C772.925 131.715 774.203 131.471 775.202 130.639C776.27 129.749 776.656 128.496 776.656 127.265H772.656ZM771.716 127.715H696.256V131.715H771.716V127.715ZM696.256 127.715C695.505 127.715 695.313 127.551 695.332 127.566C695.351 127.582 695.361 127.603 695.357 127.594C695.349 127.573 695.316 127.477 695.316 127.265H691.316C691.316 128.496 691.703 129.749 692.771 130.639C693.769 131.471 695.048 131.715 696.256 131.715V127.715ZM695.316 127.265V93.7H691.316V127.265H695.316ZM695.316 93.7C695.316 93.4875 695.349 93.392 695.357 93.3709C695.361 93.362 695.351 93.3831 695.332 93.3989C695.313 93.4141 695.505 93.25 696.256 93.25V89.25C695.048 89.25 693.769 89.4942 692.771 90.3261C691.703 91.2161 691.316 92.4695 691.316 93.7H695.316ZM696.256 93.25H771.716V89.25H696.256V93.25ZM935.707 16.035L934.202 17.352L934.246 17.4021L934.293 17.4492L935.707 16.035ZM931.052 74.835L932.539 76.1729L932.55 76.1608L932.56 76.1486L931.052 74.835ZM863.432 27.795L861.832 26.595L861.432 27.1283V27.795H863.432ZM863.432 89.535H861.432V91.535H863.432V89.535ZM863.432 101.05V99.05H861.432V101.05H863.432ZM863.432 162.79H861.432V163.457L861.832 163.99L863.432 162.79ZM873.967 110.85L875.381 112.264L875.381 112.264L873.967 110.85ZM931.052 116.485L929.544 117.799L929.555 117.811L929.565 117.823L931.052 116.485ZM935.707 175.04L934.293 173.626L934.246 173.673L934.202 173.723L935.707 175.04ZM799.487 175.04L797.982 176.357L798.026 176.407L798.073 176.454L799.487 175.04ZM796.792 33.185L794.895 33.8175L794.903 33.8431L794.912 33.8685L796.792 33.185ZM793.362 28.04L791.948 29.4542L791.985 29.4914L792.024 29.5266L793.362 28.04ZM785.032 21.67L786.141 20.0059L786.102 19.9795L786.061 19.955L785.032 21.67ZM929.582 16.075C932.329 16.075 933.633 16.7023 934.202 17.352L937.212 14.718C935.494 12.7544 932.715 12.075 929.582 12.075V16.075ZM934.293 17.4492C935.038 18.1946 935.667 19.7375 935.667 22.65H939.667C939.667 19.3558 938.989 16.4887 937.121 14.6208L934.293 17.4492ZM935.667 22.65V51.805H939.667V22.65H935.667ZM935.667 51.805C935.667 61.8591 933.505 68.9731 929.544 73.5214L932.56 76.1486C937.419 70.5703 939.667 62.3309 939.667 51.805H935.667ZM929.565 73.4971C925.664 77.8319 919.524 80.185 910.717 80.185V84.185C920.203 84.185 927.62 81.6381 932.539 76.1729L929.565 73.4971ZM910.717 80.185H880.582V84.185H910.717V80.185ZM880.582 80.185C877.67 80.185 876.127 79.5561 875.381 78.8108L872.553 81.6392C874.421 83.5072 877.288 84.185 880.582 84.185V80.185ZM875.381 78.8108C874.636 78.0654 874.007 76.5225 874.007 73.61H870.007C870.007 76.9042 870.685 79.7712 872.553 81.6392L875.381 78.8108ZM874.007 73.61V31.225H870.007V73.61H874.007ZM874.007 31.225C874.007 29.2264 873.631 27.36 872.548 25.9596C871.391 24.4613 869.696 23.835 867.842 23.835V27.835C868.764 27.835 869.153 28.107 869.383 28.4054C869.689 28.8016 870.007 29.6302 870.007 31.225H874.007ZM867.842 23.835C865.394 23.835 863.267 24.6813 861.832 26.595L865.032 28.995C865.557 28.2953 866.37 27.835 867.842 27.835V23.835ZM861.432 27.795V89.535H865.432V27.795H861.432ZM863.432 91.535H909.982V87.535H863.432V91.535ZM909.982 91.535C910.326 91.535 910.55 91.5751 910.684 91.6161C910.749 91.636 910.788 91.6547 910.81 91.6664C910.82 91.6723 910.827 91.6767 910.831 91.6793C910.833 91.6806 910.834 91.6816 910.835 91.6822C910.835 91.6828 910.836 91.683 910.836 91.6831C910.836 91.6831 910.835 91.6829 910.835 91.6826C910.835 91.6823 910.835 91.6819 910.834 91.6817C910.834 91.681 910.834 91.6812 910.835 91.683C910.837 91.6861 910.847 91.7009 910.859 91.7344C910.884 91.8047 910.922 91.9574 910.922 92.23H914.922C914.922 90.9764 914.572 89.6819 913.538 88.7344C912.538 87.8171 911.229 87.535 909.982 87.535V91.535ZM910.922 92.23V98.6H914.922V92.23H910.922ZM910.922 98.6C910.922 98.8124 910.89 98.908 910.881 98.9291C910.878 98.938 910.888 98.9169 910.907 98.9011C910.925 98.8859 910.734 99.05 909.982 99.05V103.05C911.191 103.05 912.469 102.806 913.467 101.974C914.535 101.084 914.922 99.8305 914.922 98.6H910.922ZM909.982 99.05H863.432V103.05H909.982V99.05ZM861.432 101.05V162.79H865.432V101.05H861.432ZM861.832 163.99C863.267 165.904 865.394 166.75 867.842 166.75V162.75C866.37 162.75 865.557 162.29 865.032 161.59L861.832 163.99ZM867.842 166.75C869.696 166.75 871.391 166.124 872.548 164.625C873.631 163.225 874.007 161.359 874.007 159.36H870.007C870.007 160.955 869.689 161.783 869.383 162.18C869.153 162.478 868.764 162.75 867.842 162.75V166.75ZM874.007 159.36V117.465H870.007V159.36H874.007ZM874.007 117.465C874.007 114.552 874.636 113.01 875.381 112.264L872.553 109.436C870.685 111.304 870.007 114.171 870.007 117.465H874.007ZM875.381 112.264C876.127 111.519 877.67 110.89 880.582 110.89V106.89C877.288 106.89 874.421 107.568 872.553 109.436L875.381 112.264ZM880.582 110.89H910.717V106.89H880.582V110.89ZM910.717 110.89C919.505 110.89 925.637 113.313 929.544 117.799L932.56 115.171C927.647 109.53 920.222 106.89 910.717 106.89V110.89ZM929.565 117.823C933.502 122.197 935.667 129.209 935.667 139.27H939.667C939.667 128.751 937.422 120.573 932.539 115.147L929.565 117.823ZM935.667 139.27V168.425H939.667V139.27H935.667ZM935.667 168.425C935.667 171.338 935.038 172.88 934.293 173.626L937.121 176.454C938.989 174.586 939.667 171.719 939.667 168.425H935.667ZM934.202 173.723C933.633 174.373 932.329 175 929.582 175V179C932.715 179 935.494 178.321 937.212 176.357L934.202 173.723ZM929.582 175H805.857V179H929.582V175ZM805.857 175C803.145 175 801.663 174.387 800.901 173.626L798.073 176.454C799.925 178.306 802.689 179 805.857 179V175ZM800.992 173.723C800.338 172.975 799.772 171.387 799.772 168.425H795.772C795.772 171.67 796.349 174.491 797.982 176.357L800.992 173.723ZM799.772 168.425V42.005H795.772V168.425H799.772ZM799.772 42.005C799.772 37.8922 799.453 34.65 798.672 32.5015L794.912 33.8685C795.438 35.3133 795.772 37.9511 795.772 42.005H799.772ZM798.689 32.5525C797.92 30.2433 796.574 28.2397 794.7 26.5534L792.024 29.5266C793.417 30.7803 794.358 32.2067 794.895 33.8175L798.689 32.5525ZM794.776 26.6258C792.997 24.8461 790.083 22.6334 786.141 20.0059L783.923 23.3341C787.821 25.9333 790.461 27.9672 791.948 29.4542L794.776 26.6258ZM786.061 19.955C785.913 19.8661 785.874 19.8018 785.862 19.78C785.848 19.7554 785.807 19.6717 785.807 19.465H781.807C781.807 21.1226 782.563 22.5209 784.003 23.385L786.061 19.955ZM785.807 19.465V16.525H781.807V19.465H785.807ZM785.807 16.525C785.807 16.3125 785.839 16.217 785.848 16.1959C785.851 16.187 785.841 16.2081 785.822 16.2239C785.804 16.2391 785.996 16.075 786.747 16.075V12.075C785.539 12.075 784.26 12.3192 783.262 13.1511C782.194 14.0411 781.807 15.2945 781.807 16.525H785.807ZM786.747 16.075H929.582V12.075H786.747V16.075ZM1004.74 56.95L1003.68 58.6493L1003.72 58.6703L1003.75 58.69L1004.74 56.95ZM1014.78 70.18L1012.87 70.7499L1014.21 75.2829L1016.53 71.1585L1014.78 70.18ZM1029.97 54.99L1030.92 56.7509L1030.93 56.7467L1030.94 56.7424L1029.97 54.99ZM1078.97 60.135L1077.48 61.4594L1077.48 61.4594L1078.97 60.135ZM1086.32 175.285L1087.74 176.699L1087.74 176.699L1086.32 175.285ZM1029.24 175.285L1027.73 176.602L1027.82 176.702L1027.92 176.79L1029.24 175.285ZM1026.3 80.47L1027.93 79.3075L1027.93 79.3075L1026.3 80.47ZM1018.7 80.715L1017.01 79.655L1016.7 80.1414V80.715H1018.7ZM1016.74 175.285L1018.16 176.699L1018.16 176.699L1016.74 175.285ZM959.659 175.285L958.154 176.602L958.242 176.702L958.342 176.79L959.659 175.285ZM955.494 69.69L953.724 70.6215L953.735 70.6415L953.746 70.6613L955.494 69.69ZM946.429 61.115L947.449 59.3944L947.435 59.3864L947.421 59.3785L946.429 61.115ZM944.469 59.645L946.258 58.7506L946.202 58.6392L946.133 58.5356L944.469 59.645ZM985.629 54.54C993.414 54.54 999.374 55.9737 1003.68 58.6493L1005.79 55.2507C1000.63 52.0463 993.851 50.54 985.629 50.54V54.54ZM1003.75 58.69C1008.15 61.1804 1011.2 65.138 1012.87 70.7499L1016.7 69.6101C1014.78 63.1353 1011.13 58.2729 1005.73 55.21L1003.75 58.69ZM1016.53 71.1585C1020.11 64.7717 1024.91 59.9897 1030.92 56.7509L1029.03 53.2291C1022.3 56.8502 1016.97 62.195 1013.04 69.2015L1016.53 71.1585ZM1030.94 56.7424C1037.15 53.3266 1044.16 51.6 1052.02 51.6V47.6C1043.55 47.6 1035.87 49.4667 1029.01 53.2376L1030.94 56.7424ZM1052.02 51.6C1063.37 51.6 1071.74 54.9708 1077.48 61.4594L1080.47 58.8106C1073.79 51.2525 1064.2 47.6 1052.02 47.6V51.6ZM1077.48 61.4594C1083.26 67.9994 1086.28 77.4252 1086.28 90.025H1090.28C1090.28 76.8181 1087.11 66.3173 1080.47 58.8106L1077.48 61.4594ZM1086.28 90.025V169.16H1090.28V90.025H1086.28ZM1086.28 169.16C1086.28 171.67 1085.69 173.091 1084.91 173.871L1087.74 176.699C1089.57 174.865 1090.28 172.204 1090.28 169.16H1086.28ZM1084.91 173.871C1084.36 174.416 1082.96 175 1079.95 175V179C1083.16 179 1086 178.44 1087.74 176.699L1084.91 173.871ZM1079.95 175H1035.85V179H1079.95V175ZM1035.85 175C1032.89 175 1031.3 174.434 1030.56 173.78L1027.92 176.79C1029.79 178.423 1032.61 179 1035.85 179V175ZM1030.74 173.968C1030.06 173.19 1029.52 171.726 1029.52 169.16H1025.52C1025.52 172.147 1026.13 174.767 1027.73 176.602L1030.74 173.968ZM1029.52 169.16V84.88H1025.52V169.16H1029.52ZM1029.52 84.88C1029.52 82.7829 1029.05 80.8738 1027.93 79.3075L1024.67 81.6325C1025.19 82.3528 1025.52 83.3838 1025.52 84.88H1029.52ZM1027.93 79.3075C1026.71 77.6105 1024.95 76.755 1022.87 76.755V80.755C1023.73 80.755 1024.25 81.0428 1024.67 81.6325L1027.93 79.3075ZM1022.87 76.755C1020.43 76.755 1018.29 77.6026 1017.01 79.655L1020.4 81.775C1020.75 81.214 1021.38 80.755 1022.87 80.755V76.755ZM1016.7 80.715V169.16H1020.7V80.715H1016.7ZM1016.7 169.16C1016.7 171.67 1016.11 173.091 1015.33 173.871L1018.16 176.699C1019.99 174.865 1020.7 172.204 1020.7 169.16H1016.7ZM1015.33 173.871C1014.78 174.416 1013.38 175 1010.37 175V179C1013.58 179 1016.42 178.44 1018.16 176.699L1015.33 173.871ZM1010.37 175H966.274V179H1010.37V175ZM966.274 175C963.312 175 961.724 174.434 960.976 173.78L958.342 176.79C960.208 178.423 963.029 179 966.274 179V175ZM961.164 173.968C960.483 173.19 959.944 171.726 959.944 169.16H955.944C955.944 172.147 956.548 174.767 958.154 176.602L961.164 173.968ZM959.944 169.16V82.675H955.944V169.16H959.944ZM959.944 82.675C959.944 76.8269 959.119 72.0963 957.242 68.7187L953.746 70.6613C955.136 73.1637 955.944 77.0897 955.944 82.675H959.944ZM957.264 68.7585C955.396 65.2101 952.039 62.1145 947.449 59.3944L945.41 62.8356C949.639 65.3422 952.325 67.9633 953.724 70.6215L957.264 68.7585ZM947.421 59.3785C946.884 59.0714 946.514 58.8321 946.282 58.6575C946.166 58.5705 946.112 58.5205 946.098 58.5064C946.07 58.4787 946.164 58.5617 946.258 58.7506L942.68 60.5394C942.99 61.1586 943.541 61.602 943.882 61.8575C944.302 62.1729 944.831 62.5053 945.437 62.8515L947.421 59.3785ZM946.133 58.5356C946.049 58.4096 945.979 58.2334 945.979 57.93H941.979C941.979 58.9333 942.236 59.9004 942.805 60.7544L946.133 58.5356ZM945.979 57.93V54.99H941.979V57.93H945.979ZM945.979 54.99C945.979 54.7775 946.011 54.682 946.02 54.6609C946.023 54.652 946.014 54.6731 945.995 54.6889C945.976 54.7041 946.168 54.54 946.919 54.54V50.54C945.711 50.54 944.432 50.7842 943.434 51.6161C942.366 52.5061 941.979 53.7595 941.979 54.99H945.979ZM946.919 54.54H985.629V50.54H946.919V54.54ZM1176.78 148.825L1178.38 150.025L1178.78 149.492V148.825H1176.78ZM1176.78 73.12H1178.78V72.4533L1178.38 71.92L1176.78 73.12ZM1174.33 17.995L1172.56 18.9265L1172.57 18.9465L1172.58 18.9663L1174.33 17.995ZM1165.27 9.42L1166.29 7.69941L1166.27 7.69135L1166.26 7.68351L1165.27 9.42ZM1163.06 7.94999L1161.16 8.58244L1161.31 9.03034L1161.65 9.36419L1163.06 7.94999ZM1235.58 2.80499L1234.08 4.122L1234.16 4.22235L1234.27 4.31015L1235.58 2.80499ZM1238.28 145.64L1240.07 144.746L1240.07 144.746L1238.28 145.64ZM1245.63 137.555L1247.61 137.814L1247.61 137.801L1247.61 137.789L1245.63 137.555ZM1246.61 132.655L1248.27 133.764L1248.34 133.661L1248.4 133.549L1246.61 132.655ZM1254.69 133.39L1252.77 133.939L1252.8 134.061L1252.85 134.178L1254.69 133.39ZM1245.14 169.405L1243.69 168.024L1243.69 168.025L1245.14 169.405ZM1180.95 159.605L1182.71 158.668L1180.95 155.335L1179.18 158.668L1180.95 159.605ZM1113.82 162.545L1112.16 163.67L1112.17 163.683L1112.18 163.697L1113.82 162.545ZM1114.06 66.505L1112.44 65.3314L1114.06 66.505ZM1176.78 59.89L1175.37 61.3042L1178.78 64.7184V59.89H1176.78ZM1165.96 144.905C1165.96 147.075 1166.38 149.072 1167.56 150.556C1168.8 152.13 1170.62 152.785 1172.62 152.785V148.785C1171.51 148.785 1171 148.46 1170.69 148.074C1170.32 147.598 1169.96 146.655 1169.96 144.905H1165.96ZM1172.62 152.785C1174.97 152.785 1176.98 151.891 1178.38 150.025L1175.18 147.625C1174.62 148.373 1173.86 148.785 1172.62 148.785V152.785ZM1178.78 148.825V73.12H1174.78V148.825H1178.78ZM1178.38 71.92C1176.98 70.0543 1174.97 69.16 1172.62 69.16V73.16C1173.86 73.16 1174.62 73.5724 1175.18 74.32L1178.38 71.92ZM1172.62 69.16C1170.62 69.16 1168.8 69.8151 1167.56 71.3886C1166.38 72.873 1165.96 74.8699 1165.96 77.04H1169.96C1169.96 75.29 1170.32 74.347 1170.69 73.8714C1171 73.4849 1171.51 73.16 1172.62 73.16V69.16ZM1165.96 77.04V144.905H1169.96V77.04H1165.96ZM1178.78 30.98C1178.78 25.1319 1177.96 20.4013 1176.08 17.0237L1172.58 18.9663C1173.97 21.4687 1174.78 25.3947 1174.78 30.98H1178.78ZM1176.1 17.0635C1174.23 13.5151 1170.88 10.4195 1166.29 7.69941L1164.25 11.1406C1168.48 13.6472 1171.16 16.2683 1172.56 18.9265L1176.1 17.0635ZM1166.26 7.68351C1165.71 7.36975 1165.28 7.10888 1164.97 6.8984C1164.81 6.79356 1164.69 6.70788 1164.6 6.64037C1164.56 6.60703 1164.53 6.58087 1164.51 6.56164C1164.48 6.54201 1164.47 6.53353 1164.48 6.53578L1161.65 9.36419C1162.19 9.90942 1163.16 10.5213 1164.28 11.1565L1166.26 7.68351ZM1164.96 7.31753C1164.88 7.07726 1164.82 6.72763 1164.82 6.23499H1160.82C1160.82 7.04902 1160.92 7.84272 1161.16 8.58244L1164.96 7.31753ZM1164.82 6.23499V3.29499H1160.82V6.23499H1164.82ZM1164.82 3.29499C1164.82 3.08254 1164.85 2.98703 1164.86 2.9659C1164.86 2.95699 1164.85 2.97808 1164.83 2.99393C1164.81 3.0091 1165.01 2.84499 1165.76 2.84499V-1.15501C1164.55 -1.15501 1163.27 -0.910792 1162.27 -0.0789536C1161.2 0.811088 1160.82 2.06445 1160.82 3.29499H1164.82ZM1165.76 2.84499H1229.21V-1.15501H1165.76V2.84499ZM1229.21 2.84499C1232.16 2.84499 1233.52 3.49014 1234.08 4.122L1237.09 1.48799C1235.35 -0.493494 1232.47 -1.15501 1229.21 -1.15501V2.84499ZM1234.27 4.31015C1234.94 4.89613 1235.54 6.14534 1235.54 8.68499H1239.54C1239.54 5.6713 1238.84 3.00051 1236.9 1.29984L1234.27 4.31015ZM1235.54 8.68499V140.005H1239.54V8.68499H1235.54ZM1235.54 140.005C1235.54 141.444 1235.61 142.701 1235.74 143.755C1235.88 144.779 1236.1 145.751 1236.49 146.534L1240.07 144.746C1239.97 144.549 1239.82 144.092 1239.71 143.238C1239.6 142.414 1239.54 141.343 1239.54 140.005H1235.54ZM1236.49 146.534C1236.88 147.312 1237.45 147.989 1238.23 148.457C1239 148.923 1239.87 149.11 1240.73 149.11V145.11C1240.45 145.11 1240.33 145.052 1240.29 145.028C1240.25 145.006 1240.17 144.948 1240.07 144.746L1236.49 146.534ZM1240.73 149.11C1241.77 149.11 1242.78 148.876 1243.67 148.323C1244.57 147.77 1245.24 146.973 1245.7 146.044L1242.12 144.256C1241.93 144.634 1241.74 144.817 1241.58 144.917C1241.41 145.017 1241.16 145.11 1240.73 145.11V149.11ZM1245.7 146.044C1246.52 144.398 1247.12 141.548 1247.61 137.814L1243.64 137.296C1243.15 141.076 1242.61 143.289 1242.12 144.256L1245.7 146.044ZM1247.61 137.789C1247.77 136.423 1247.93 135.381 1248.08 134.64C1248.15 134.268 1248.22 134.003 1248.27 133.825C1248.34 133.612 1248.35 133.641 1248.27 133.764L1244.94 131.546C1244.7 131.914 1244.55 132.331 1244.45 132.649C1244.34 133.002 1244.25 133.41 1244.16 133.855C1243.98 134.748 1243.81 135.91 1243.64 137.321L1247.61 137.789ZM1248.4 133.549C1248.39 133.568 1248.37 133.603 1248.33 133.64C1248.29 133.678 1248.26 133.7 1248.24 133.709C1248.22 133.717 1248.23 133.708 1248.29 133.697C1248.34 133.686 1248.43 133.675 1248.57 133.675V129.675C1247.13 129.675 1245.6 130.196 1244.82 131.761L1248.4 133.549ZM1248.57 133.675H1252.73V129.675H1248.57V133.675ZM1252.73 133.675C1252.78 133.675 1252.78 133.682 1252.75 133.67C1252.71 133.657 1252.67 133.634 1252.64 133.609C1252.59 133.564 1252.67 133.606 1252.77 133.939L1256.62 132.841C1256.38 132.031 1255.98 131.216 1255.27 130.599C1254.54 129.952 1253.64 129.675 1252.73 129.675V133.675ZM1252.85 134.178C1253.17 134.923 1253.43 136.45 1253.43 139.025H1257.43C1257.43 136.374 1257.19 134.144 1256.53 132.602L1252.85 134.178ZM1253.43 139.025C1253.43 151.744 1250.09 161.315 1243.69 168.024L1246.58 170.786C1253.9 163.122 1257.43 152.439 1257.43 139.025H1253.43ZM1243.69 168.025C1237.47 174.544 1228.43 177.94 1216.23 177.94V181.94C1229.18 181.94 1239.41 178.313 1246.58 170.785L1243.69 168.025ZM1216.23 177.94C1208.34 177.94 1201.68 176.305 1196.16 173.123C1190.64 169.946 1186.16 165.159 1182.71 158.668L1179.18 160.542C1182.93 167.608 1187.91 172.988 1194.16 176.589C1200.4 180.186 1207.78 181.94 1216.23 181.94V177.94ZM1179.18 158.668C1175.72 165.187 1171.38 169.978 1166.19 173.149C1160.99 176.319 1154.83 177.94 1147.63 177.94V181.94C1155.45 181.94 1162.36 180.172 1168.27 176.563C1174.18 172.956 1178.98 167.58 1182.71 160.542L1179.18 158.668ZM1147.63 177.94C1133.89 177.94 1123.24 172.45 1115.45 161.393L1112.18 163.697C1120.73 175.834 1132.61 181.94 1147.63 181.94V177.94ZM1115.47 161.42C1107.77 150.111 1103.81 134.307 1103.81 113.79H1099.81C1099.81 134.76 1103.85 151.459 1112.16 163.67L1115.47 161.42ZM1103.81 113.79C1103.81 93.7744 1107.85 78.4836 1115.68 67.6785L1112.44 65.3314C1103.94 77.0664 1099.81 93.2989 1099.81 113.79H1103.81ZM1115.68 67.6785C1123.45 56.961 1134.26 51.6 1148.36 51.6V47.6C1133.06 47.6 1121.01 53.509 1112.44 65.3314L1115.68 67.6785ZM1148.36 51.6C1160.06 51.6 1168.97 54.9067 1175.37 61.3042L1178.2 58.4758C1170.87 51.1533 1160.84 47.6 1148.36 47.6V51.6ZM1178.78 59.89V30.98H1174.78V59.89H1178.78ZM79.872 347.28H77.872V347.947L78.272 348.48L79.872 347.28ZM87.957 347.525L86.3295 346.363L86.3295 346.363L87.957 347.525ZM87.957 211.55L86.3295 212.712L86.3295 212.712L87.957 211.55ZM79.872 211.795L78.272 210.595L77.872 211.128V211.795H79.872ZM146.022 219.635L144.559 220.998L144.567 221.007L144.575 221.016L146.022 219.635ZM157.047 321.8L158.831 322.704L158.836 322.694L157.047 321.8ZM130.097 350.71L131.115 352.431L131.122 352.427L130.097 350.71ZM15.927 359.04L14.4218 360.357L14.4657 360.407L14.5128 360.454L15.927 359.04ZM12.252 214.735L10.5155 215.727L10.5316 215.756L10.5487 215.783L12.252 214.735ZM1.47197 205.67L2.54875 203.985L2.52507 203.969L2.50097 203.955L1.47197 205.67ZM78.272 348.48C79.7385 350.435 81.9808 351.24 84.527 351.24V347.24C82.8265 347.24 81.9654 346.738 81.472 346.08L78.272 348.48ZM84.527 351.24C86.6076 351.24 88.3723 350.384 89.5844 348.687L86.3295 346.363C85.9083 346.952 85.3863 347.24 84.527 347.24V351.24ZM89.5844 348.687C90.7033 347.121 91.182 345.212 91.182 343.115H87.182C87.182 344.611 86.844 345.642 86.3295 346.363L89.5844 348.687ZM91.182 343.115V215.96H87.182V343.115H91.182ZM91.182 215.96C91.182 213.863 90.7033 211.954 89.5844 210.388L86.3295 212.712C86.844 213.433 87.182 214.464 87.182 215.96H91.182ZM89.5844 210.388C88.3723 208.691 86.6076 207.835 84.527 207.835V211.835C85.3863 211.835 85.9083 212.123 86.3295 212.712L89.5844 210.388ZM84.527 207.835C81.9808 207.835 79.7385 208.64 78.272 210.595L81.472 212.995C81.9654 212.337 82.8265 211.835 84.527 211.835V207.835ZM77.872 211.795V347.28H81.872V211.795H77.872ZM89.672 200.075C113.428 200.075 131.628 207.122 144.559 220.998L147.485 218.272C133.629 203.402 114.263 196.075 89.672 196.075V200.075ZM144.575 221.016C157.681 234.753 164.357 254.046 164.357 279.17H168.357C168.357 253.334 161.477 232.937 147.469 218.254L144.575 221.016ZM164.357 279.17C164.357 294.914 161.306 308.81 155.258 320.906L158.836 322.694C165.201 309.964 168.357 295.439 168.357 279.17H164.357ZM155.263 320.896C149.227 332.81 140.506 342.164 129.071 348.993L131.122 352.427C143.208 345.209 152.454 335.29 158.831 322.704L155.263 320.896ZM129.079 348.989C117.835 355.64 104.641 359 89.427 359V363C105.247 363 119.166 359.5 131.115 352.431L129.079 348.989ZM89.427 359H22.297V363H89.427V359ZM22.297 359C19.585 359 18.1027 358.387 17.3412 357.626L14.5128 360.454C16.3646 362.306 19.1289 363 22.297 363V359ZM17.4321 357.723C16.7779 356.975 16.212 355.387 16.212 352.425H12.212C12.212 355.67 12.7894 358.491 14.4218 360.357L17.4321 357.723ZM16.212 352.425V225.76H12.212V352.425H16.212ZM16.212 225.76C16.212 220.488 15.5752 216.319 13.9553 213.687L10.5487 215.783C11.5421 217.397 12.212 220.578 12.212 225.76H16.212ZM13.9885 213.743C13.1605 212.294 11.7229 210.786 9.86417 209.223C7.9772 207.636 5.53056 205.89 2.54875 203.985L0.395194 207.355C3.29339 209.207 5.58341 210.85 7.28977 212.284C9.02441 213.743 10.0368 214.89 10.5155 215.727L13.9885 213.743ZM2.50097 203.955C2.35283 203.866 2.31367 203.802 2.30154 203.78C2.28792 203.755 2.24697 203.672 2.24697 203.465H-1.75303C-1.75303 205.123 -0.997201 206.521 0.442976 207.385L2.50097 203.955ZM2.24697 203.465V200.525H-1.75303V203.465H2.24697ZM2.24697 200.525C2.24697 200.313 2.27922 200.217 2.28768 200.196C2.29124 200.187 2.28137 200.208 2.26234 200.224C2.24413 200.239 2.43545 200.075 3.18697 200.075V196.075C1.97849 196.075 0.699811 196.319 -0.298395 197.151C-1.36645 198.041 -1.75303 199.294 -1.75303 200.525H2.24697ZM3.18697 200.075H89.672V196.075H3.18697V200.075ZM242.077 314.94L241.164 316.72L241.182 316.729L241.201 316.738L242.077 314.94ZM301.612 303.915L300.198 302.501L300.181 302.518L300.164 302.535L301.612 303.915ZM303.572 302.2L304.466 303.989L304.578 303.933L304.681 303.864L303.572 302.2ZM310.677 302.935L308.82 303.678L308.879 303.827L308.962 303.964L310.677 302.935ZM303.082 335.52L301.398 334.44L301.393 334.448L303.082 335.52ZM279.807 356.1L278.89 354.323L278.878 354.329L279.807 356.1ZM210.472 355.855L211.377 354.072L211.377 354.072L210.472 355.855ZM184.992 332.825L183.294 333.882L183.3 333.892L183.307 333.902L184.992 332.825ZM209.492 242.175L210.408 243.953L210.418 243.948L209.492 242.175ZM277.112 238.745L276.375 240.604L276.387 240.609L277.112 238.745ZM297.937 253.445L296.371 254.689L296.371 254.689L297.937 253.445ZM294.017 301.955L295.35 303.446L295.358 303.439L295.367 303.431L294.017 301.955ZM236.197 300.485L237.656 299.117L237.063 298.485H236.197V300.485ZM233.502 301.71L232.088 300.296L233.502 301.71ZM239.872 287.5H237.872V288.167L238.272 288.7L239.872 287.5ZM239.872 246.83L238.272 245.63L237.872 246.163V246.83H239.872ZM230.522 304.405C230.522 309.406 234.727 313.419 241.164 316.72L242.989 313.16C236.686 309.928 234.522 306.917 234.522 304.405H230.522ZM241.201 316.738C247.872 319.988 255.281 321.595 263.392 321.595V317.595C255.823 317.595 249.022 316.099 242.953 313.142L241.201 316.738ZM263.392 321.595C279.41 321.595 292.689 316.176 303.06 305.295L300.164 302.535C290.608 312.561 278.407 317.595 263.392 317.595V321.595ZM303.026 305.329C303.501 304.855 303.874 304.501 304.154 304.256C304.294 304.134 304.396 304.051 304.466 303.999C304.547 303.938 304.54 303.952 304.466 303.989L302.677 300.411C302.262 300.619 301.847 300.959 301.52 301.246C301.146 301.573 300.703 301.995 300.198 302.501L303.026 305.329ZM304.681 303.864C304.738 303.826 304.962 303.71 305.532 303.71V299.71C304.468 299.71 303.385 299.921 302.462 300.536L304.681 303.864ZM305.532 303.71H308.472V299.71H305.532V303.71ZM308.472 303.71C308.821 303.71 308.927 303.774 308.909 303.765C308.897 303.757 308.87 303.739 308.844 303.709C308.819 303.68 308.814 303.663 308.82 303.678L312.534 302.192C312.208 301.378 311.641 300.706 310.852 300.268C310.099 299.85 309.266 299.71 308.472 299.71V303.71ZM308.962 303.964C309.144 304.268 309.412 305.239 309.412 307.345H313.412C313.412 305.204 313.189 303.235 312.392 301.906L308.962 303.964ZM309.412 307.345C309.412 317.083 306.749 326.1 301.398 334.44L304.765 336.6C310.522 327.626 313.412 317.861 313.412 307.345H309.412ZM301.393 334.448C296.217 342.604 288.744 349.237 278.89 354.323L280.724 357.877C291.123 352.51 299.166 345.423 304.771 336.592L301.393 334.448ZM278.878 354.329C269.23 359.39 258.366 361.94 246.242 361.94V365.94C258.945 365.94 270.457 363.263 280.736 357.871L278.878 354.329ZM246.242 361.94C233.291 361.94 221.683 359.304 211.377 354.072L209.566 357.638C220.494 363.186 232.733 365.94 246.242 365.94V361.94ZM211.377 354.072C201.077 348.842 192.853 341.408 186.677 331.748L183.307 333.902C189.87 344.169 198.634 352.088 209.566 357.638L211.377 354.072ZM186.689 331.768C180.697 322.148 177.682 311.169 177.682 298.77H173.682C173.682 311.851 176.873 323.575 183.294 333.882L186.689 331.768ZM177.682 298.77C177.682 286.518 180.542 275.692 186.217 266.234L182.787 264.176C176.702 274.318 173.682 285.868 173.682 298.77H177.682ZM186.217 266.234C191.894 256.773 199.938 249.347 210.408 243.953L208.576 240.397C197.486 246.11 188.87 254.037 182.787 264.176L186.217 266.234ZM210.418 243.948C221.029 238.405 233.441 235.6 247.712 235.6V231.6C232.91 231.6 219.842 234.512 208.566 240.402L210.418 243.948ZM247.712 235.6C258.446 235.6 267.99 237.282 276.375 240.604L277.849 236.886C268.92 233.348 258.864 231.6 247.712 231.6V235.6ZM276.387 240.609C284.931 243.932 291.562 248.639 296.371 254.689L299.503 252.201C294.185 245.511 286.932 240.418 277.837 236.881L276.387 240.609ZM296.371 254.689C301.146 260.697 303.532 267.605 303.532 275.495H307.532C307.532 266.725 304.854 258.933 299.503 252.201L296.371 254.689ZM303.532 275.495C303.532 285.563 299.92 293.844 292.667 300.479L295.367 303.431C303.467 296.02 307.532 286.66 307.532 275.495H303.532ZM292.684 300.464C285.426 306.949 276.205 310.245 264.862 310.245V314.245C277.039 314.245 287.254 310.681 295.35 303.446L292.684 300.464ZM264.862 310.245C253.597 310.245 244.59 306.513 237.656 299.117L234.738 301.853C242.504 310.137 252.607 314.245 264.862 314.245V310.245ZM236.197 298.485C234.593 298.485 233.207 299.176 232.088 300.296L234.916 303.124C235.43 302.611 235.841 302.485 236.197 302.485V298.485ZM232.088 300.296C230.974 301.409 230.522 302.865 230.522 304.405H234.522C234.522 303.659 234.723 303.318 234.916 303.124L232.088 300.296ZM238.272 288.7C239.63 290.51 241.529 291.46 243.792 291.46V287.46C242.788 287.46 242.074 287.103 241.472 286.3L238.272 288.7ZM243.792 291.46C245.628 291.46 247.355 290.94 248.586 289.573C249.781 288.246 250.202 286.453 250.202 284.56H246.202C246.202 285.934 245.888 286.591 245.613 286.897C245.373 287.163 244.896 287.46 243.792 287.46V291.46ZM250.202 284.56V249.77H246.202V284.56H250.202ZM250.202 249.77C250.202 247.877 249.781 246.084 248.586 244.757C247.355 243.39 245.628 242.87 243.792 242.87V246.87C244.896 246.87 245.373 247.167 245.613 247.433C245.888 247.739 246.202 248.396 246.202 249.77H250.202ZM243.792 242.87C241.529 242.87 239.63 243.82 238.272 245.63L241.472 248.03C242.074 247.227 242.788 246.87 243.792 246.87V242.87ZM237.872 246.83V287.5H241.872V246.83H237.872ZM316.128 257.855L314.242 258.521L314.247 258.537L314.253 258.553L316.128 257.855ZM311.963 250.995L310.483 252.34L310.515 252.376L310.548 252.409L311.963 250.995ZM304.368 245.115L305.42 243.414L305.409 243.407L305.397 243.4L304.368 245.115ZM367.578 239.235L366.928 241.126L366.962 241.138L366.998 241.149L367.578 239.235ZM380.073 248.055L378.428 249.193L378.443 249.214L378.458 249.235L380.073 248.055ZM388.893 266.92L390.791 266.291L390.79 266.288L388.893 266.92ZM412.413 337.97L410.514 338.599L410.663 339.049L410.998 339.384L412.413 337.97ZM417.068 326.945L415.167 327.567L415.17 327.577L417.068 326.945ZM395.018 259.57L393.112 260.176L393.114 260.184L393.117 260.192L395.018 259.57ZM392.078 251.485L390.257 252.313L390.257 252.313L392.078 251.485ZM389.383 246.83L390.983 245.63L390.957 245.596L390.931 245.564L389.383 246.83ZM386.443 243.4L384.654 244.294L384.799 244.585L385.028 244.814L386.443 243.4ZM434.708 334.785L436.565 335.528L436.565 335.526L434.708 334.785ZM425.888 353.16L424.249 352.013L424.243 352.022L424.237 352.031L425.888 353.16ZM418.538 359.53L419.24 361.403L419.27 361.391L419.299 361.379L418.538 359.53ZM356.798 358.305L355.688 359.969L355.721 359.991L355.755 360.012L356.798 358.305ZM349.693 348.015L351.57 347.326L351.567 347.317L349.693 348.015ZM318.014 257.189C316.95 254.176 315.416 251.62 313.377 249.581L310.548 252.409C312.103 253.964 313.345 255.981 314.242 258.521L318.014 257.189ZM313.443 249.65C311.629 247.655 308.919 245.58 305.42 243.414L303.315 246.816C306.676 248.896 309.03 250.742 310.483 252.34L313.443 249.65ZM305.397 243.4C303.952 242.533 303.918 241.995 303.918 241.93H299.918C299.918 244.152 301.517 245.737 303.339 246.83L305.397 243.4ZM303.918 241.93V238.99H299.918V241.93H303.918ZM303.918 238.99C303.918 238.778 303.95 238.682 303.958 238.661C303.962 238.652 303.952 238.673 303.933 238.689C303.915 238.704 304.106 238.54 304.858 238.54V234.54C303.649 234.54 302.371 234.784 301.372 235.616C300.304 236.506 299.918 237.759 299.918 238.99H303.918ZM304.858 238.54H343.078V234.54H304.858V238.54ZM343.078 238.54C354.14 238.54 362.029 239.443 366.928 241.126L368.228 237.344C362.673 235.434 354.229 234.54 343.078 234.54V238.54ZM366.998 241.149C371.997 242.664 375.769 245.352 378.428 249.193L381.717 246.917C378.496 242.264 373.938 239.073 368.158 237.321L366.998 241.149ZM378.458 249.235C381.385 253.24 384.246 259.306 386.995 267.552L390.79 266.288C387.986 257.874 384.967 251.363 381.687 246.875L378.458 249.235ZM386.994 267.549L410.514 338.599L414.311 337.341L390.791 266.291L386.994 267.549ZM410.998 339.384C412.186 340.572 413.673 341.195 415.353 341.195V337.195C414.746 337.195 414.273 337.002 413.827 336.556L410.998 339.384ZM415.353 341.195C416.955 341.195 418.504 340.729 419.609 339.477C420.671 338.272 421.028 336.669 421.028 335.03H417.028C417.028 336.167 416.771 336.647 416.609 336.831C416.489 336.966 416.2 337.195 415.353 337.195V341.195ZM421.028 335.03C421.028 333.187 420.258 330.193 418.965 326.313L415.17 327.577C416.49 331.537 417.028 333.933 417.028 335.03H421.028ZM418.968 326.323L396.918 258.948L393.117 260.192L415.167 327.567L418.968 326.323ZM396.924 258.964C395.774 255.35 394.765 252.564 393.898 250.657L390.257 252.313C391.024 253.999 391.975 256.604 393.112 260.176L396.924 258.964ZM393.898 250.657C393.034 248.755 392.065 247.073 390.983 245.63L387.783 248.03C388.66 249.2 389.488 250.621 390.257 252.313L393.898 250.657ZM390.931 245.564C389.476 243.786 388.431 242.56 387.857 241.986L385.028 244.814C385.434 245.22 386.349 246.281 387.835 248.096L390.931 245.564ZM388.232 242.506C388.059 242.161 387.953 241.738 387.953 241.195H383.953C383.953 242.285 384.173 243.332 384.654 244.294L388.232 242.506ZM387.953 241.195V238.99H383.953V241.195H387.953ZM387.953 238.99C387.953 238.778 387.985 238.682 387.993 238.661C387.997 238.652 387.987 238.673 387.968 238.689C387.95 238.704 388.141 238.54 388.893 238.54V234.54C387.684 234.54 386.406 234.784 385.407 235.616C384.339 236.506 383.953 237.759 383.953 238.99H387.953ZM388.893 238.54H458.228V234.54H388.893V238.54ZM458.228 238.54C460.987 238.54 462.696 239.049 463.672 239.754C464.527 240.372 465.048 241.304 465.048 242.91H469.048C469.048 240.27 468.098 238.017 466.014 236.511C464.05 235.093 461.349 234.54 458.228 234.54V238.54ZM465.048 242.91C465.048 244.387 464.459 247.392 463.103 252.146C461.771 256.817 459.765 262.966 457.076 270.605C451.7 285.879 443.626 307.021 432.85 334.044L436.565 335.526C447.349 308.485 455.446 287.284 460.849 271.933C463.55 264.259 465.586 258.025 466.95 253.243C468.289 248.545 469.048 245.026 469.048 242.91H465.048ZM432.851 334.042C429.257 343.028 426.389 348.956 424.249 352.013L427.526 354.307C429.96 350.831 432.972 344.509 436.565 335.528L432.851 334.042ZM424.237 352.031C422.278 354.894 420.112 356.719 417.776 357.681L419.299 361.379C422.517 360.054 425.25 357.633 427.538 354.289L424.237 352.031ZM417.835 357.657C415.569 358.507 411.863 359 406.533 359V363C411.982 363 416.279 362.513 419.24 361.403L417.835 357.657ZM406.533 359H369.783V363H406.533V359ZM369.783 359C364.217 359 360.322 358.115 357.841 356.598L355.755 360.012C359.153 362.088 363.915 363 369.783 363V359ZM357.907 356.641C355.453 355.005 353.287 352.009 351.57 347.326L347.815 348.704C349.691 353.821 352.263 357.685 355.688 359.969L357.907 356.641ZM351.567 347.317L318.002 257.157L314.253 258.553L347.818 348.713L351.567 347.317ZM534.885 314.94L533.973 316.72L533.991 316.729L534.01 316.738L534.885 314.94ZM594.42 303.915L593.006 302.501L592.989 302.518L592.973 302.535L594.42 303.915ZM596.38 302.2L597.275 303.989L597.386 303.933L597.49 303.864L596.38 302.2ZM603.485 302.935L601.629 303.678L601.688 303.827L601.77 303.964L603.485 302.935ZM595.89 335.52L594.207 334.44L594.202 334.448L595.89 335.52ZM572.615 356.1L571.698 354.323L571.686 354.329L572.615 356.1ZM503.28 355.855L504.186 354.072L504.186 354.072L503.28 355.855ZM477.8 332.825L476.103 333.882L476.109 333.892L476.115 333.902L477.8 332.825ZM502.3 242.175L503.216 243.953L503.226 243.948L502.3 242.175ZM569.92 238.745L569.184 240.604L569.196 240.609L569.92 238.745ZM590.745 253.445L589.18 254.689L589.18 254.689L590.745 253.445ZM586.825 301.955L588.158 303.446L588.167 303.439L588.175 303.431L586.825 301.955ZM529.005 300.485L530.465 299.117L529.872 298.485H529.005V300.485ZM526.31 301.71L524.896 300.296L526.31 301.71ZM532.68 287.5H530.68V288.167L531.08 288.7L532.68 287.5ZM532.68 246.83L531.08 245.63L530.68 246.163V246.83H532.68ZM523.33 304.405C523.33 309.406 527.536 313.419 533.973 316.72L535.798 313.16C529.495 309.928 527.33 306.917 527.33 304.405H523.33ZM534.01 316.738C540.68 319.988 548.09 321.595 556.2 321.595V317.595C548.631 317.595 541.831 316.099 535.761 313.142L534.01 316.738ZM556.2 321.595C572.219 321.595 585.497 316.176 595.868 305.295L592.973 302.535C583.417 312.561 571.215 317.595 556.2 317.595V321.595ZM595.835 305.329C596.309 304.855 596.683 304.501 596.962 304.256C597.102 304.134 597.205 304.051 597.274 303.999C597.356 303.938 597.348 303.952 597.275 303.989L595.486 300.411C595.07 300.619 594.656 300.959 594.328 301.246C593.955 301.573 593.512 301.995 593.006 302.501L595.835 305.329ZM597.49 303.864C597.547 303.826 597.771 303.71 598.34 303.71V299.71C597.277 299.71 596.194 299.921 595.271 300.536L597.49 303.864ZM598.34 303.71H601.28V299.71H598.34V303.71ZM601.28 303.71C601.629 303.71 601.735 303.774 601.718 303.765C601.705 303.757 601.679 303.739 601.653 303.709C601.627 303.68 601.623 303.663 601.629 303.678L605.342 302.192C605.017 301.378 604.45 300.706 603.66 300.268C602.908 299.85 602.075 299.71 601.28 299.71V303.71ZM601.77 303.964C601.953 304.268 602.22 305.239 602.22 307.345H606.22C606.22 305.204 605.998 303.235 605.2 301.906L601.77 303.964ZM602.22 307.345C602.22 317.083 599.557 326.1 594.207 334.44L597.574 336.6C603.33 327.626 606.22 317.861 606.22 307.345H602.22ZM594.202 334.448C589.026 342.604 581.552 349.237 571.698 354.323L573.533 357.877C583.932 352.51 591.975 345.423 597.579 336.592L594.202 334.448ZM571.686 354.329C562.038 359.39 551.174 361.94 539.05 361.94V365.94C551.753 365.94 563.266 363.263 573.545 357.871L571.686 354.329ZM539.05 361.94C526.1 361.94 514.492 359.304 504.186 354.072L502.375 357.638C513.302 363.186 525.541 365.94 539.05 365.94V361.94ZM504.186 354.072C493.885 348.842 485.662 341.408 479.485 331.748L476.115 333.902C482.679 344.169 491.442 352.088 502.375 357.638L504.186 354.072ZM479.498 331.768C473.506 322.148 470.49 311.169 470.49 298.77H466.49C466.49 311.851 469.682 323.575 476.103 333.882L479.498 331.768ZM470.49 298.77C470.49 286.518 473.35 275.692 479.025 266.234L475.595 264.176C469.511 274.318 466.49 285.868 466.49 298.77H470.49ZM479.025 266.234C484.702 256.773 492.746 249.347 503.216 243.953L501.385 240.397C490.295 246.11 481.679 254.037 475.595 264.176L479.025 266.234ZM503.226 243.948C513.837 238.405 526.249 235.6 540.52 235.6V231.6C525.718 231.6 512.65 234.512 501.374 240.402L503.226 243.948ZM540.52 235.6C551.255 235.6 560.799 237.282 569.184 240.604L570.657 236.886C561.729 233.348 551.673 231.6 540.52 231.6V235.6ZM569.196 240.609C577.74 243.932 584.371 248.639 589.18 254.689L592.311 252.201C586.994 245.511 579.741 240.418 570.645 236.881L569.196 240.609ZM589.18 254.689C593.955 260.697 596.34 267.605 596.34 275.495H600.34C600.34 266.725 597.663 258.933 592.311 252.201L589.18 254.689ZM596.34 275.495C596.34 285.563 592.728 293.844 585.475 300.479L588.175 303.431C596.276 296.02 600.34 286.66 600.34 275.495H596.34ZM585.493 300.464C578.235 306.949 569.014 310.245 557.67 310.245V314.245C569.847 314.245 580.063 310.681 588.158 303.446L585.493 300.464ZM557.67 310.245C546.405 310.245 537.399 306.513 530.465 299.117L527.546 301.853C535.312 310.137 545.416 314.245 557.67 314.245V310.245ZM529.005 298.485C527.401 298.485 526.016 299.176 524.896 300.296L527.725 303.124C528.238 302.611 528.65 302.485 529.005 302.485V298.485ZM524.896 300.296C523.783 301.409 523.33 302.865 523.33 304.405H527.33C527.33 303.659 527.531 303.318 527.725 303.124L524.896 300.296ZM531.08 288.7C532.438 290.51 534.338 291.46 536.6 291.46V287.46C535.597 287.46 534.883 287.103 534.28 286.3L531.08 288.7ZM536.6 291.46C538.436 291.46 540.164 290.94 541.395 289.573C542.589 288.246 543.01 286.453 543.01 284.56H539.01C539.01 285.934 538.697 286.591 538.421 286.897C538.182 287.163 537.705 287.46 536.6 287.46V291.46ZM543.01 284.56V249.77H539.01V284.56H543.01ZM543.01 249.77C543.01 247.877 542.589 246.084 541.395 244.757C540.164 243.39 538.436 242.87 536.6 242.87V246.87C537.705 246.87 538.182 247.167 538.421 247.433C538.697 247.739 539.01 248.396 539.01 249.77H543.01ZM536.6 242.87C534.338 242.87 532.438 243.82 531.08 245.63L534.28 248.03C534.883 247.227 535.597 246.87 536.6 246.87V242.87ZM530.68 246.83V287.5H534.68V246.83H530.68ZM612.799 201.995L611.029 202.926L611.04 202.946L611.051 202.966L612.799 201.995ZM603.734 193.42L604.753 191.699L604.74 191.691L604.726 191.684L603.734 193.42ZM601.774 191.95L603.563 191.056L603.507 190.944L603.438 190.841L601.774 191.95ZM675.274 186.805L673.769 188.122L673.856 188.222L673.957 188.31L675.274 186.805ZM677.969 329.64L676.18 330.534L677.969 329.64ZM683.359 329.395L681.622 328.403L681.566 328.502L681.521 328.607L683.359 329.395ZM685.319 321.555L687.294 321.871L687.3 321.83L687.305 321.789L685.319 321.555ZM686.299 316.655L687.963 317.764L688.032 317.661L688.088 317.549L686.299 316.655ZM694.384 317.39L692.461 317.939L692.496 318.061L692.546 318.178L694.384 317.39ZM684.584 353.405L685.998 354.819L685.998 354.819L684.584 353.405ZM625.294 353.405L623.831 354.768L623.847 354.786L623.863 354.802L625.294 353.405ZM617.249 214.98C617.249 209.132 616.424 204.401 614.547 201.024L611.051 202.966C612.441 205.469 613.249 209.395 613.249 214.98H617.249ZM614.569 201.063C612.701 197.515 609.344 194.419 604.753 191.699L602.714 195.141C606.944 197.647 609.63 200.268 611.029 202.926L614.569 201.063ZM604.726 191.684C604.189 191.376 603.819 191.137 603.586 190.962C603.47 190.876 603.417 190.826 603.402 190.811C603.375 190.784 603.468 190.867 603.563 191.056L599.985 192.844C600.295 193.464 600.846 193.907 601.186 194.162C601.607 194.478 602.136 194.81 602.742 195.156L604.726 191.684ZM603.438 190.841C603.354 190.715 603.284 190.538 603.284 190.235H599.284C599.284 191.238 599.54 192.205 600.11 193.059L603.438 190.841ZM603.284 190.235V187.295H599.284V190.235H603.284ZM603.284 187.295C603.284 187.083 603.316 186.987 603.325 186.966C603.328 186.957 603.318 186.978 603.299 186.994C603.281 187.009 603.472 186.845 604.224 186.845V182.845C603.015 182.845 601.737 183.089 600.738 183.921C599.67 184.811 599.284 186.064 599.284 187.295H603.284ZM604.224 186.845H668.904V182.845H604.224V186.845ZM668.904 186.845C671.855 186.845 673.216 187.49 673.769 188.122L676.779 185.488C675.045 183.507 672.159 182.845 668.904 182.845V186.845ZM673.957 188.31C674.627 188.896 675.234 190.145 675.234 192.685H679.234C679.234 189.671 678.534 187.001 676.591 185.3L673.957 188.31ZM675.234 192.685V324.005H679.234V192.685H675.234ZM675.234 324.005C675.234 325.444 675.297 326.701 675.434 327.755C675.568 328.779 675.788 329.751 676.18 330.534L679.758 328.746C679.66 328.549 679.512 328.092 679.401 327.238C679.293 326.414 679.234 325.343 679.234 324.005H675.234ZM676.18 330.534C676.569 331.312 677.139 331.989 677.92 332.457C678.696 332.923 679.558 333.11 680.419 333.11V329.11C680.137 329.11 680.018 329.052 679.978 329.028C679.942 329.006 679.859 328.948 679.758 328.746L676.18 330.534ZM680.419 333.11C681.406 333.11 682.391 332.918 683.264 332.409C684.161 331.886 684.8 331.109 685.197 330.183L681.521 328.607C681.427 328.825 681.332 328.905 681.249 328.954C681.142 329.016 680.902 329.11 680.419 329.11V333.11ZM685.095 330.387C685.565 329.565 685.944 328.402 686.279 327.063C686.625 325.679 686.962 323.943 687.294 321.871L683.344 321.239C683.022 323.25 682.706 324.863 682.399 326.092C682.08 327.366 681.806 328.082 681.622 328.403L685.095 330.387ZM687.305 321.789C687.466 320.423 687.622 319.381 687.77 318.64C687.844 318.268 687.911 318.003 687.965 317.825C688.031 317.612 688.045 317.641 687.963 317.764L684.635 315.546C684.389 315.914 684.24 316.331 684.142 316.649C684.034 317.002 683.937 317.41 683.848 317.855C683.669 318.748 683.499 319.91 683.333 321.321L687.305 321.789ZM688.088 317.549C688.078 317.568 688.057 317.603 688.019 317.64C687.982 317.678 687.947 317.7 687.928 317.709C687.912 317.717 687.924 317.708 687.977 317.697C688.032 317.686 688.123 317.675 688.259 317.675V313.675C686.823 313.675 685.292 314.196 684.51 315.761L688.088 317.549ZM688.259 317.675H692.424V313.675H688.259V317.675ZM692.424 317.675C692.473 317.675 692.471 317.682 692.437 317.67C692.399 317.657 692.36 317.634 692.332 317.609C692.28 317.564 692.365 317.606 692.461 317.939L696.307 316.841C696.076 316.031 695.671 315.216 694.966 314.599C694.227 313.952 693.332 313.675 692.424 313.675V317.675ZM692.546 318.178C692.861 318.914 693.119 320.511 693.119 323.27H697.119C697.119 320.475 696.887 318.152 696.222 316.602L692.546 318.178ZM693.119 323.27C693.119 335.98 689.711 345.45 683.17 351.991L685.998 354.819C693.504 347.314 697.119 336.693 697.119 323.27H693.119ZM683.17 351.991C676.629 358.532 667.159 361.94 654.449 361.94V365.94C667.872 365.94 678.492 362.325 685.998 354.819L683.17 351.991ZM654.449 361.94C642.252 361.94 633.11 358.545 626.725 352.008L623.863 354.802C631.198 362.312 641.493 365.94 654.449 365.94V361.94ZM626.757 352.042C620.51 345.338 617.249 335.683 617.249 322.78H613.249C613.249 336.337 616.684 347.099 623.831 354.768L626.757 352.042ZM617.249 322.78V214.98H613.249V322.78H617.249ZM717.695 347.28L716.332 348.743L716.342 348.753L717.695 347.28ZM717.695 250.26L716.342 248.787L716.332 248.797L717.695 250.26ZM822.8 250.26L821.437 251.723L821.447 251.733L822.8 250.26ZM822.8 347.28L821.447 345.807L821.437 345.817L822.8 347.28ZM770.37 354.67C772.422 354.67 774.19 353.853 775.341 352.126C776.397 350.542 776.78 348.419 776.78 346.055H772.78C772.78 348.101 772.427 349.286 772.013 349.907C771.694 350.385 771.257 350.67 770.37 350.67V354.67ZM776.78 346.055V251.485H772.78V346.055H776.78ZM776.78 251.485C776.78 249.121 776.397 246.998 775.341 245.414C774.19 243.687 772.422 242.87 770.37 242.87V246.87C771.257 246.87 771.694 247.155 772.013 247.633C772.427 248.254 772.78 249.439 772.78 251.485H776.78ZM770.37 242.87C768.317 242.87 766.549 243.687 765.398 245.414C764.342 246.998 763.96 249.121 763.96 251.485H767.96C767.96 249.439 768.312 248.254 768.726 247.633C769.045 247.155 769.482 246.87 770.37 246.87V242.87ZM763.96 251.485V346.055H767.96V251.485H763.96ZM763.96 346.055C763.96 348.419 764.342 350.542 765.398 352.126C766.549 353.853 768.317 354.67 770.37 354.67V350.67C769.482 350.67 769.045 350.385 768.726 349.907C768.312 349.286 767.96 348.101 767.96 346.055H763.96ZM770.37 361.94C747.639 361.94 730.64 356.459 719.048 345.807L716.342 348.753C728.923 360.314 747.041 365.94 770.37 365.94V361.94ZM719.058 345.817C707.654 335.194 701.81 319.625 701.81 298.77H697.81C697.81 320.381 703.888 337.153 716.332 348.743L719.058 345.817ZM701.81 298.77C701.81 277.915 707.654 262.346 719.058 251.723L716.332 248.797C703.888 260.387 697.81 277.159 697.81 298.77H701.81ZM719.048 251.733C730.64 241.081 747.639 235.6 770.37 235.6V231.6C747.041 231.6 728.923 237.226 716.342 248.787L719.048 251.733ZM770.37 235.6C793.103 235.6 810.012 241.082 821.437 251.723L824.163 248.797C811.741 237.225 793.696 231.6 770.37 231.6V235.6ZM821.447 251.733C833.008 262.357 838.93 277.923 838.93 298.77H842.93C842.93 277.151 836.765 260.376 824.153 248.787L821.447 251.733ZM838.93 298.77C838.93 319.617 833.008 335.183 821.447 345.807L824.153 348.753C836.765 337.164 842.93 320.389 842.93 298.77H838.93ZM821.437 345.817C810.012 356.458 793.103 361.94 770.37 361.94V365.94C793.696 365.94 811.741 360.315 824.163 348.743L821.437 345.817ZM902.478 240.95L901.396 242.632L901.431 242.655L901.467 242.675L902.478 240.95ZM912.278 253.935L910.365 254.519L911.779 259.146L914.045 254.872L912.278 253.935ZM979.163 251.24L977.51 252.365L977.519 252.378L977.528 252.392L979.163 251.24ZM979.163 347.035L980.782 348.209L980.782 348.209L979.163 347.035ZM916.443 353.895L917.857 352.481L914.443 349.067V353.895H916.443ZM914.483 410.735L913.166 409.23L913.066 409.318L912.978 409.418L914.483 410.735ZM857.398 410.735L858.812 409.321L857.398 410.735ZM853.233 253.69L851.463 254.621L851.474 254.642L851.485 254.661L853.233 253.69ZM844.168 245.115L845.188 243.394L845.174 243.386L845.16 243.379L844.168 245.115ZM842.208 243.645L843.997 242.751L843.941 242.639L843.872 242.536L842.208 243.645ZM916.443 264.715L914.843 263.515L914.443 264.048V264.715H916.443ZM916.443 340.42H914.443V341.087L914.843 341.62L916.443 340.42ZM883.368 238.54C891.331 238.54 897.269 239.979 901.396 242.632L903.559 239.268C898.54 236.041 891.738 234.54 883.368 234.54V238.54ZM901.467 242.675C905.717 245.167 908.696 249.057 910.365 254.519L914.191 253.351C912.266 247.053 908.712 242.286 903.489 239.225L901.467 242.675ZM914.045 254.872C917.501 248.353 921.844 243.562 927.04 240.391C932.233 237.221 938.394 235.6 945.598 235.6V231.6C937.775 231.6 930.869 233.368 924.956 236.977C919.045 240.584 914.242 245.96 910.511 252.998L914.045 254.872ZM945.598 235.6C959.318 235.6 969.883 241.159 977.51 252.365L980.816 250.115C972.436 237.801 960.625 231.6 945.598 231.6V235.6ZM977.528 252.392C985.37 263.528 989.413 279.237 989.413 299.75H993.413C993.413 278.776 989.289 262.145 980.798 250.088L977.528 252.392ZM989.413 299.75C989.413 319.766 985.373 335.056 977.543 345.861L980.782 348.209C989.286 336.474 993.413 320.241 993.413 299.75H989.413ZM977.543 345.861C969.777 356.579 958.964 361.94 944.863 361.94V365.94C960.162 365.94 972.215 360.031 980.782 348.209L977.543 345.861ZM944.863 361.94C932.981 361.94 924.078 358.701 917.857 352.481L915.029 355.309C922.202 362.482 932.245 365.94 944.863 365.94V361.94ZM914.443 353.895V404.855H918.443V353.895H914.443ZM914.443 404.855C914.443 407.395 913.836 408.644 913.166 409.23L915.8 412.24C917.744 410.539 918.443 407.869 918.443 404.855H914.443ZM912.978 409.418C912.425 410.05 911.064 410.695 908.113 410.695V414.695C911.368 414.695 914.254 414.033 915.988 412.052L912.978 409.418ZM908.113 410.695H864.013V414.695H908.113V410.695ZM864.013 410.695C861.1 410.695 859.558 410.066 858.812 409.321L855.984 412.149C857.852 414.017 860.719 414.695 864.013 414.695V410.695ZM858.812 409.321C858.237 408.745 857.683 407.456 857.683 404.855H853.683C853.683 407.807 854.273 410.438 855.984 412.149L858.812 409.321ZM857.683 404.855V266.675H853.683V404.855H857.683ZM857.683 266.675C857.683 260.827 856.858 256.096 854.981 252.719L851.485 254.661C852.875 257.164 853.683 261.09 853.683 266.675H857.683ZM855.003 252.759C853.135 249.21 849.778 246.114 845.188 243.394L843.148 246.836C847.378 249.342 850.064 251.963 851.463 254.621L855.003 252.759ZM845.16 243.379C844.623 243.071 844.253 242.832 844.02 242.657C843.905 242.571 843.851 242.52 843.837 242.506C843.809 242.479 843.902 242.562 843.997 242.751L840.419 244.539C840.729 245.159 841.28 245.602 841.62 245.857C842.041 246.173 842.57 246.505 843.176 246.851L845.16 243.379ZM843.872 242.536C843.788 242.41 843.718 242.233 843.718 241.93H839.718C839.718 242.933 839.975 243.9 840.544 244.754L843.872 242.536ZM843.718 241.93V238.99H839.718V241.93H843.718ZM843.718 238.99C843.718 238.778 843.75 238.682 843.759 238.661C843.762 238.652 843.752 238.673 843.733 238.689C843.715 238.704 843.906 238.54 844.658 238.54V234.54C843.449 234.54 842.171 234.784 841.173 235.616C840.105 236.506 839.718 237.759 839.718 238.99H843.718ZM844.658 238.54H883.368V234.54H844.658V238.54ZM927.263 268.635C927.263 266.465 926.842 264.468 925.667 262.984C924.422 261.41 922.608 260.755 920.608 260.755V264.755C921.711 264.755 922.225 265.08 922.531 265.466C922.908 265.942 923.263 266.885 923.263 268.635H927.263ZM920.608 260.755C918.254 260.755 916.242 261.649 914.843 263.515L918.043 265.915C918.604 265.167 919.368 264.755 920.608 264.755V260.755ZM914.443 264.715V340.42H918.443V264.715H914.443ZM914.843 341.62C916.242 343.486 918.254 344.38 920.608 344.38V340.38C919.368 340.38 918.604 339.968 918.043 339.22L914.843 341.62ZM920.608 344.38C922.608 344.38 924.422 343.725 925.667 342.151C926.842 340.667 927.263 338.67 927.263 336.5H923.263C923.263 338.25 922.908 339.193 922.531 339.669C922.225 340.055 921.711 340.38 920.608 340.38V344.38ZM927.263 336.5V268.635H923.263V336.5H927.263ZM1066.43 314.94L1065.52 316.72L1065.54 316.729L1065.55 316.738L1066.43 314.94ZM1125.97 303.915L1124.55 302.501L1124.53 302.518L1124.52 302.535L1125.97 303.915ZM1127.93 302.2L1128.82 303.989L1128.93 303.933L1129.03 303.864L1127.93 302.2ZM1135.03 302.935L1133.17 303.678L1133.23 303.827L1133.32 303.964L1135.03 302.935ZM1127.44 335.52L1125.75 334.44L1125.75 334.448L1127.44 335.52ZM1104.16 356.1L1103.24 354.323L1103.23 354.329L1104.16 356.1ZM1034.83 355.855L1035.73 354.072L1035.73 354.072L1034.83 355.855ZM1009.35 332.825L1007.65 333.882L1007.65 333.892L1007.66 333.902L1009.35 332.825ZM1033.85 242.175L1034.76 243.953L1034.77 243.948L1033.85 242.175ZM1101.47 238.745L1100.73 240.604L1100.74 240.609L1101.47 238.745ZM1122.29 253.445L1120.72 254.689L1120.72 254.689L1122.29 253.445ZM1118.37 301.955L1119.7 303.446L1119.71 303.439L1119.72 303.431L1118.37 301.955ZM1060.55 300.485L1062.01 299.117L1061.42 298.485H1060.55V300.485ZM1057.86 301.71L1056.44 300.296L1057.86 301.71ZM1064.23 287.5H1062.23V288.167L1062.63 288.7L1064.23 287.5ZM1064.23 246.83L1062.63 245.63L1062.23 246.163V246.83H1064.23ZM1054.88 304.405C1054.88 309.406 1059.08 313.419 1065.52 316.72L1067.34 313.16C1061.04 309.928 1058.88 306.917 1058.88 304.405H1054.88ZM1065.55 316.738C1072.23 319.988 1079.63 321.595 1087.75 321.595V317.595C1080.18 317.595 1073.38 316.099 1067.31 313.142L1065.55 316.738ZM1087.75 321.595C1103.76 321.595 1117.04 316.176 1127.41 305.295L1124.52 302.535C1114.96 312.561 1102.76 317.595 1087.75 317.595V321.595ZM1127.38 305.329C1127.85 304.855 1128.23 304.501 1128.51 304.256C1128.65 304.134 1128.75 304.051 1128.82 303.999C1128.9 303.938 1128.89 303.952 1128.82 303.989L1127.03 300.411C1126.62 300.619 1126.2 300.959 1125.87 301.246C1125.5 301.573 1125.06 301.995 1124.55 302.501L1127.38 305.329ZM1129.03 303.864C1129.09 303.826 1129.32 303.71 1129.89 303.71V299.71C1128.82 299.71 1127.74 299.921 1126.82 300.536L1129.03 303.864ZM1129.89 303.71H1132.83V299.71H1129.89V303.71ZM1132.83 303.71C1133.17 303.71 1133.28 303.774 1133.26 303.765C1133.25 303.757 1133.22 303.739 1133.2 303.709C1133.17 303.68 1133.17 303.663 1133.17 303.678L1136.89 302.192C1136.56 301.378 1135.99 300.706 1135.21 300.268C1134.45 299.85 1133.62 299.71 1132.83 299.71V303.71ZM1133.32 303.964C1133.5 304.268 1133.77 305.239 1133.77 307.345H1137.77C1137.77 305.204 1137.54 303.235 1136.75 301.906L1133.32 303.964ZM1133.77 307.345C1133.77 317.083 1131.1 326.1 1125.75 334.44L1129.12 336.6C1134.88 327.626 1137.77 317.861 1137.77 307.345H1133.77ZM1125.75 334.448C1120.57 342.604 1113.1 349.237 1103.24 354.323L1105.08 357.877C1115.48 352.51 1123.52 345.423 1129.12 336.592L1125.75 334.448ZM1103.23 354.329C1093.58 359.39 1082.72 361.94 1070.6 361.94V365.94C1083.3 365.94 1094.81 363.263 1105.09 357.871L1103.23 354.329ZM1070.6 361.94C1057.64 361.94 1046.04 359.304 1035.73 354.072L1033.92 357.638C1044.85 363.186 1057.09 365.94 1070.6 365.94V361.94ZM1035.73 354.072C1025.43 348.842 1017.21 341.408 1011.03 331.748L1007.66 333.902C1014.22 344.169 1022.99 352.088 1033.92 357.638L1035.73 354.072ZM1011.04 331.768C1005.05 322.148 1002.04 311.169 1002.04 298.77H998.035C998.035 311.851 1001.23 323.575 1007.65 333.882L1011.04 331.768ZM1002.04 298.77C1002.04 286.518 1004.9 275.692 1010.57 266.234L1007.14 264.176C1001.06 274.318 998.035 285.868 998.035 298.77H1002.04ZM1010.57 266.234C1016.25 256.773 1024.29 249.347 1034.76 243.953L1032.93 240.397C1021.84 246.11 1013.22 254.037 1007.14 264.176L1010.57 266.234ZM1034.77 243.948C1045.38 238.405 1057.79 235.6 1072.07 235.6V231.6C1057.26 231.6 1044.2 234.512 1032.92 240.402L1034.77 243.948ZM1072.07 235.6C1082.8 235.6 1092.34 237.282 1100.73 240.604L1102.2 236.886C1093.27 233.348 1083.22 231.6 1072.07 231.6V235.6ZM1100.74 240.609C1109.28 243.932 1115.92 248.639 1120.72 254.689L1123.86 252.201C1118.54 245.511 1111.29 240.418 1102.19 236.881L1100.74 240.609ZM1120.72 254.689C1125.5 260.697 1127.89 267.605 1127.89 275.495H1131.89C1131.89 266.725 1129.21 258.933 1123.86 252.201L1120.72 254.689ZM1127.89 275.495C1127.89 285.563 1124.27 293.844 1117.02 300.479L1119.72 303.431C1127.82 296.02 1131.89 286.66 1131.89 275.495H1127.89ZM1117.04 300.464C1109.78 306.949 1100.56 310.245 1089.22 310.245V314.245C1101.39 314.245 1111.61 310.681 1119.7 303.446L1117.04 300.464ZM1089.22 310.245C1077.95 310.245 1068.94 306.513 1062.01 299.117L1059.09 301.853C1066.86 310.137 1076.96 314.245 1089.22 314.245V310.245ZM1060.55 298.485C1058.95 298.485 1057.56 299.176 1056.44 300.296L1059.27 303.124C1059.78 302.611 1060.19 302.485 1060.55 302.485V298.485ZM1056.44 300.296C1055.33 301.409 1054.88 302.865 1054.88 304.405H1058.88C1058.88 303.659 1059.08 303.318 1059.27 303.124L1056.44 300.296ZM1062.63 288.7C1063.98 290.51 1065.88 291.46 1068.15 291.46V287.46C1067.14 287.46 1066.43 287.103 1065.83 286.3L1062.63 288.7ZM1068.15 291.46C1069.98 291.46 1071.71 290.94 1072.94 289.573C1074.13 288.246 1074.56 286.453 1074.56 284.56H1070.56C1070.56 285.934 1070.24 286.591 1069.97 286.897C1069.73 287.163 1069.25 287.46 1068.15 287.46V291.46ZM1074.56 284.56V249.77H1070.56V284.56H1074.56ZM1074.56 249.77C1074.56 247.877 1074.13 246.084 1072.94 244.757C1071.71 243.39 1069.98 242.87 1068.15 242.87V246.87C1069.25 246.87 1069.73 247.167 1069.97 247.433C1070.24 247.739 1070.56 248.396 1070.56 249.77H1074.56ZM1068.15 242.87C1065.88 242.87 1063.98 243.82 1062.63 245.63L1065.83 248.03C1066.43 247.227 1067.14 246.87 1068.15 246.87V242.87ZM1062.23 246.83V287.5H1066.23V246.83H1062.23ZM1182.81 249.035L1181.1 250.074L1182.49 252.363L1184.29 250.378L1182.81 249.035ZM1198.73 237.52L1199.5 239.366L1199.52 239.357L1199.55 239.348L1198.73 237.52ZM1248.47 243.4L1247.17 244.923L1247.17 244.923L1248.47 243.4ZM1250.67 289.215L1251.96 290.745L1251.97 290.735L1251.99 290.725L1250.67 289.215ZM1202.9 289.705L1201.64 291.259L1201.65 291.267L1201.66 291.275L1202.9 289.705ZM1217.35 249.28V251.28H1218.49L1219.07 250.309L1217.35 249.28ZM1194.32 251.73L1195.76 253.122L1195.77 253.112L1195.78 253.101L1194.32 251.73ZM1191.87 288.725L1190.24 289.882L1190.26 289.913L1190.29 289.942L1191.87 288.725ZM1207.8 300.485L1207.01 302.323L1207.01 302.323L1207.8 300.485ZM1212.21 303.915L1210.42 304.809L1210.49 304.95L1210.58 305.077L1212.21 303.915ZM1145.32 253.69L1143.55 254.621L1143.56 254.642L1143.58 254.661L1145.32 253.69ZM1136.26 245.115L1137.28 243.394L1137.26 243.386L1137.25 243.379L1136.26 245.115ZM1134.3 243.645L1136.09 242.751L1136.03 242.639L1135.96 242.536L1134.3 243.645ZM1154.14 238.54C1167.83 238.54 1176.55 242.581 1181.1 250.074L1184.52 247.996C1178.95 238.829 1168.55 234.54 1154.14 234.54V238.54ZM1184.29 250.378C1188.85 245.346 1193.92 241.691 1199.5 239.366L1197.96 235.674C1191.78 238.249 1186.24 242.271 1181.33 247.692L1184.29 250.378ZM1199.55 239.348C1205.13 236.868 1211.62 235.6 1219.07 235.6V231.6C1211.17 231.6 1204.1 232.946 1197.92 235.692L1199.55 239.348ZM1219.07 235.6C1230.61 235.6 1239.92 238.752 1247.17 244.923L1249.77 241.877C1241.66 234.981 1231.38 231.6 1219.07 231.6V235.6ZM1247.17 244.923C1254.4 251.074 1257.98 258.847 1257.98 268.39H1261.98C1261.98 257.68 1257.89 248.792 1249.77 241.877L1247.17 244.923ZM1257.98 268.39C1257.98 276.326 1255.12 282.709 1249.36 287.705L1251.99 290.725C1258.65 284.941 1261.98 277.441 1261.98 268.39H1257.98ZM1249.39 287.685C1243.61 292.548 1236.09 295.055 1226.66 295.055V299.055C1236.83 299.055 1245.32 296.335 1251.96 290.745L1249.39 287.685ZM1226.66 295.055C1217.38 295.055 1209.92 292.7 1204.14 288.135L1201.66 291.275C1208.29 296.51 1216.68 299.055 1226.66 299.055V295.055ZM1204.16 288.151C1198.56 283.616 1195.83 277.971 1195.83 271.085H1191.83C1191.83 279.226 1195.15 285.994 1201.64 291.259L1204.16 288.151ZM1195.83 271.085C1195.83 265.235 1197.83 260.553 1201.81 256.873L1199.09 253.937C1194.24 258.424 1191.83 264.195 1191.83 271.085H1195.83ZM1201.81 256.873C1205.8 253.18 1210.92 251.28 1217.35 251.28V247.28C1210.07 247.28 1203.92 249.463 1199.09 253.937L1201.81 256.873ZM1219.07 250.309C1219.71 249.234 1220.09 248.066 1220.09 246.83H1216.09C1216.09 247.228 1215.97 247.693 1215.64 248.251L1219.07 250.309ZM1220.09 246.83C1220.09 245.104 1219.39 243.581 1217.91 242.593C1216.57 241.701 1214.82 241.4 1212.94 241.4V245.4C1214.5 245.4 1215.32 245.671 1215.69 245.922C1215.93 246.077 1216.09 246.269 1216.09 246.83H1220.09ZM1212.94 241.4C1205.17 241.4 1198.45 244.432 1192.87 250.359L1195.78 253.101C1200.65 247.921 1206.35 245.4 1212.94 245.4V241.4ZM1192.89 250.338C1187.29 256.11 1184.48 263.147 1184.48 271.33H1188.48C1188.48 264.16 1190.9 258.13 1195.76 253.122L1192.89 250.338ZM1184.48 271.33C1184.48 278.255 1186.4 284.463 1190.24 289.882L1193.5 287.568C1190.16 282.861 1188.48 277.472 1188.48 271.33H1184.48ZM1190.29 289.942C1194.29 295.166 1199.9 299.276 1207.01 302.323L1208.59 298.647C1201.98 295.814 1196.97 292.084 1193.46 287.508L1190.29 289.942ZM1207.01 302.323C1209.14 303.237 1210.08 304.135 1210.42 304.809L1214 303.021C1213.03 301.081 1211.03 299.693 1208.59 298.647L1207.01 302.323ZM1210.58 305.077C1211 305.67 1211.43 307.146 1211.43 310.04H1215.43C1215.43 307.054 1215.05 304.446 1213.84 302.753L1210.58 305.077ZM1211.43 310.04V353.16H1215.43V310.04H1211.43ZM1211.43 353.16C1211.43 355.433 1210.84 356.779 1209.98 357.584C1209.1 358.41 1207.6 359 1205.1 359V363C1208.16 363 1210.82 362.283 1212.72 360.496C1214.64 358.688 1215.43 356.114 1215.43 353.16H1211.43ZM1205.1 359H1155.37V363H1205.1V359ZM1155.37 359C1153.16 359 1151.87 358.434 1151.11 357.648C1150.34 356.851 1149.77 355.481 1149.77 353.16H1145.77C1145.77 356.066 1146.48 358.616 1148.24 360.432C1150.01 362.259 1152.51 363 1155.37 363V359ZM1149.77 353.16V266.675H1145.77V353.16H1149.77ZM1149.77 266.675C1149.77 260.827 1148.95 256.096 1147.07 252.719L1143.58 254.661C1144.97 257.164 1145.77 261.09 1145.77 266.675H1149.77ZM1147.09 252.759C1145.23 249.21 1141.87 246.114 1137.28 243.394L1135.24 246.836C1139.47 249.342 1142.15 251.963 1143.55 254.621L1147.09 252.759ZM1137.25 243.379C1136.71 243.071 1136.34 242.832 1136.11 242.657C1136 242.571 1135.94 242.52 1135.93 242.506C1135.9 242.479 1135.99 242.562 1136.09 242.751L1132.51 244.539C1132.82 245.159 1133.37 245.602 1133.71 245.857C1134.13 246.173 1134.66 246.505 1135.27 246.851L1137.25 243.379ZM1135.96 242.536C1135.88 242.41 1135.81 242.233 1135.81 241.93H1131.81C1131.81 242.933 1132.07 243.9 1132.63 244.754L1135.96 242.536ZM1135.81 241.93V238.99H1131.81V241.93H1135.81ZM1135.81 238.99C1135.81 238.778 1135.84 238.682 1135.85 238.661C1135.85 238.652 1135.84 238.673 1135.82 238.689C1135.81 238.704 1136 238.54 1136.75 238.54V234.54C1135.54 234.54 1134.26 234.784 1133.26 235.616C1132.2 236.506 1131.81 237.759 1131.81 238.99H1135.81ZM1136.75 238.54H1154.14V234.54H1136.75V238.54Z" fill="#2C2C2C"/>
</svg>
