<svg width="335" height="63" viewBox="0 0 335 63" fill="none" xmlns="http://www.w3.org/2000/svg">
<path d="M17.8927 12.6757L0 33.5081L17.8927 54.337L22.1235 47.6783L10.0663 33.5046L22.1235 19.3308L17.8927 12.6757ZM286.48 53.8396H294.332L306.816 13.0594H298.96L286.48 53.8396ZM317.107 12.6757L312.877 19.3344L324.934 33.5081L312.877 47.6819L317.107 54.3406L335 33.5117L317.107 12.6757Z" fill="#E94E35" fill-opacity="0.94"/>
<path d="M34.0521 22.168C36.6491 22.168 38.8221 19.995 38.8221 17.398C38.8221 14.801 36.6491 12.628 34.0521 12.628C31.4551 12.628 29.2821 14.801 29.2821 17.398C29.2821 19.995 31.4551 22.168 34.0521 22.168ZM30.0771 51H38.0271V24.5H30.0771V51ZM62.7957 24.5V27.203C61.0467 25.03 58.5027 23.758 55.0577 23.758C47.5317 23.758 42.0197 29.906 42.0197 37.22C42.0197 44.534 47.5317 50.682 55.0577 50.682C58.5027 50.682 61.0467 49.41 62.7957 47.237V49.675C62.7957 53.438 60.5167 55.346 56.8067 55.346C53.3087 55.346 51.7717 53.862 50.7647 52.007L43.9807 55.929C46.4187 60.275 51.0297 62.342 56.5417 62.342C63.5907 62.342 70.5337 58.579 70.5337 49.675V24.5H62.7957ZM56.3827 43.368C52.6197 43.368 49.9697 40.877 49.9697 37.22C49.9697 33.563 52.6197 31.072 56.3827 31.072C60.1457 31.072 62.7957 33.563 62.7957 37.22C62.7957 40.877 60.1457 43.368 56.3827 43.368ZM88.5862 51.742C96.3772 51.742 102.631 45.647 102.631 37.75C102.631 29.853 96.3772 23.758 88.5862 23.758C80.7952 23.758 74.5412 29.853 74.5412 37.75C74.5412 45.647 80.7952 51.742 88.5862 51.742ZM88.5862 44.004C85.1412 44.004 82.4912 41.513 82.4912 37.75C82.4912 33.987 85.1412 31.496 88.5862 31.496C92.0312 31.496 94.6812 33.987 94.6812 37.75C94.6812 41.513 92.0312 44.004 88.5862 44.004ZM114.578 29.217V24.5H106.628V51H114.578V39.022C114.578 33.775 119.242 32.45 122.528 32.98V23.97C119.189 23.97 115.638 25.666 114.578 29.217ZM132.494 32.238C132.494 31.284 133.342 30.754 134.72 30.754C136.469 30.754 137.529 31.708 138.271 33.086L145.055 29.429C142.829 25.666 139.013 23.758 134.72 23.758C129.208 23.758 124.332 26.673 124.332 32.45C124.332 41.619 137.37 40.082 137.37 42.997C137.37 44.057 136.416 44.64 134.508 44.64C132.176 44.64 130.692 43.527 130.003 41.513L123.113 45.435C125.18 49.728 129.208 51.742 134.508 51.742C140.232 51.742 145.532 49.145 145.532 43.05C145.532 33.245 132.494 35.259 132.494 32.238ZM167.981 24.5V26.991C166.232 24.977 163.635 23.758 160.084 23.758C153.141 23.758 147.417 29.853 147.417 37.75C147.417 45.647 153.141 51.742 160.084 51.742C163.635 51.742 166.232 50.523 167.981 48.509V51H175.931V24.5H167.981ZM161.674 44.216C158.017 44.216 155.367 41.725 155.367 37.75C155.367 33.775 158.017 31.284 161.674 31.284C165.331 31.284 167.981 33.775 167.981 37.75C167.981 41.725 165.331 44.216 161.674 44.216ZM196.793 23.758C193.295 23.758 190.645 25.03 189.214 26.991V24.5H181.264V51H189.214V36.531C189.214 32.768 191.228 31.072 194.143 31.072C196.687 31.072 198.754 32.609 198.754 35.895V51H206.704V34.729C206.704 27.574 202.146 23.758 196.793 23.758ZM227.192 32.132V24.5H221.733V17.08L213.783 19.465V24.5H209.543V32.132H213.783V41.513C213.783 48.933 216.804 52.06 227.192 51V43.792C223.694 44.004 221.733 43.792 221.733 41.513V32.132H227.192ZM243.396 51.742C251.187 51.742 257.441 45.647 257.441 37.75C257.441 29.853 251.187 23.758 243.396 23.758C235.605 23.758 229.351 29.853 229.351 37.75C229.351 45.647 235.605 51.742 243.396 51.742ZM243.396 44.004C239.951 44.004 237.301 41.513 237.301 37.75C237.301 33.987 239.951 31.496 243.396 31.496C246.841 31.496 249.491 33.987 249.491 37.75C249.491 41.513 246.841 44.004 243.396 44.004ZM268.446 32.238C268.446 31.284 269.294 30.754 270.672 30.754C272.421 30.754 273.481 31.708 274.223 33.086L281.007 29.429C278.781 25.666 274.965 23.758 270.672 23.758C265.16 23.758 260.284 26.673 260.284 32.45C260.284 41.619 273.322 40.082 273.322 42.997C273.322 44.057 272.368 44.64 270.46 44.64C268.128 44.64 266.644 43.527 265.955 41.513L259.065 45.435C261.132 49.728 265.16 51.742 270.46 51.742C276.184 51.742 281.484 49.145 281.484 43.05C281.484 33.245 268.446 35.259 268.446 32.238Z" fill="#F8F8F8"/>
</svg>
